<svg width="1009.54" height="750.39" xmlns="http://www.w3.org/2000/svg">
 <defs>
  <linearGradient y2="-0.000123" x2="0.499914" y1="1.000058" x1="0.499914" id="fd95d79a-5cd9-41a5-a6ba-ef65272c784a">
   <stop stop-opacity="0.25" stop-color="gray" offset="0"/>
   <stop stop-opacity="0.12" stop-color="gray" offset="0.54"/>
   <stop stop-opacity="0.1" stop-color="gray" offset="1"/>
  </linearGradient>
 </defs>
 <title>in progress</title>
 <g>
  <title>background</title>
  <rect fill="none" id="canvas_background" height="402" width="582" y="-1" x="-1"/>
 </g>
 <g>
  <title>Layer 1</title>
  <path id="svg_1" opacity="0.1" fill="#f9a826" d="m586.549997,105.199997c-64.72,-1.67 -126.36,-17.19 -185.22,-34.17s-117.16,-35.83 -180.33,-44.83c-40.63,-5.79 -87.1,-6.61 -119.83,9.58c-31.51,15.56 -41.69,42.42 -47.16,67.42c-4.12,18.77 -6.54,38.52 4.74,56.09c7.84,12.2 21.74,22.45 31.36,34.14c33.47,40.66 9.81,90.79 -26.45,130.49c-17,18.62 -36.75,36.38 -49.88,56.21s-19.2,42.53 -7.71,62.76c11.38,20 38.51,35.09 67.9,45.68c59.69,21.51 130,27.66 198.61,31.15c151.83,7.72 304.46,4.37 456.69,1c56.34,-1.24 112.92,-2.49 168.34,-9c30.78,-3.59 62.55,-9.3 84.9,-23.07c28.36,-17.48 35.39,-47.08 16.38,-69c-31.88,-36.77 -120,-45.91 -142.31,-85.37c-12.26,-21.72 0.33,-45.91 18.16,-66.06c38.24,-43.21 102.33,-81.12 105.7,-130.52c2.32,-33.92 -28.49,-67.9 -76.13,-83.95c-49.93,-16.82 -119.18,-14.71 -156,13.14c-37.95,28.71 -104.61,39.75 -161.76,38.31z"/>
  <g id="svg_2" opacity="0.8">
   <path id="svg_3" fill="#f9a826" d="m938.769997,178.779997s-11.28,-4.58 -47.16,11.88s-40.36,14.37 -49.65,11.85s-14.47,-3.11 -24.43,-16.85c0,0 -7,-38.07 -13.82,-44s-35.68,3.37 -35.68,3.37s-34.62,7.96 -41.26,-38.33c0,0 4.68,-34.88 -1.7,-45.59c0,0 12.88,5.55 34.12,-3.41s38.24,9.66 38.24,9.66s5.36,13.87 4.8,22.13s2.83,11.38 13,7.38c0,0 5,-7.08 -2.07,-18.78s-12.08,-20.42 -10.11,-29.51s7.62,-21.68 25.79,-28s42.86,-7.5 54.71,-12.38s14.71,-8.15 14.71,-8.15s-7.29,7.31 9.89,38.27s6.23,44.41 6.23,44.41s-9.14,21.78 -49.48,20c0,0 -38.87,1.42 -17.68,17.9c0,0 13.57,-2.76 33.87,-9.21s34.93,20.17 38.57,38.69s19.11,28.67 19.11,28.67z"/>
   <path id="svg_4" fill="#444053" d="m886.529997,23.489997l0.21,-0.06c1.56,5.91 -15.81,29.65 -30.66,48.53l-0.17,-0.13c20.94,-26.63 31.86,-43.8 30.62,-48.34z"/>
   <path id="svg_5" fill="#444053" d="m856.209997,71.439997l0.09,0.24c-11.86,15.08 -26.78,33.08 -38.72,46.41c-1.14,1.27 -2.27,2.6 -3.35,4l-0.35,-0.27c1.1,-1.37 2.23,-2.71 3.37,-4c11.94,-13.35 27.11,-31.31 38.96,-46.38z"/>
   <path id="svg_6" fill="#444053" d="m814.169997,121.419997l0.24,0.4c-21.73,27.13 -23.17,69.25 -23.22,69.62l-4.58,-5.24c0.05,-0.42 5.68,-37.47 27.56,-64.78z"/>
   <path id="svg_7" stroke-miterlimit="10" stroke="#444053" fill="none" d="m913.579997,164.069997s-25.62,-13.32 -45.59,-8.54s-64.92,-16.9 -64.92,-16.9s-19.09,-7.75 -22.93,-16.59c0,0 -13.09,-13.85 -13.84,-21s-13.53,-25.19 -21.81,-25.84"/>
   <path id="svg_8" stroke-miterlimit="10" stroke="#444053" fill="none" d="m909.869997,176.889997s-12.9,-8.69 -11.4,-18.83"/>
   <path id="svg_9" stroke-miterlimit="10" stroke="#444053" fill="none" d="m890.079997,188.119997s-18.46,-6.7 -20.31,-33"/>
   <path id="svg_10" stroke-miterlimit="10" stroke="#444053" fill="none" d="m860.299997,194.919997s-17.64,-14.63 -11.78,-40.2"/>
   <path id="svg_11" stroke-miterlimit="10" stroke="#444053" fill="none" d="m824.509997,187.769997s-11.74,-24.63 -1.29,-40.65"/>
   <path id="svg_12" stroke-miterlimit="10" stroke="#444053" fill="none" d="m913.879997,147.829997s-13.35,4.24 -10.48,11.26"/>
   <path id="svg_13" stroke-miterlimit="10" stroke="#444053" fill="none" d="m897.769997,123.609997s-17.86,5.66 -18.28,30.93"/>
   <path id="svg_14" stroke-miterlimit="10" stroke="#444053" fill="none" d="m872.869997,117.779997s-16.25,20.06 -15.1,38.29"/>
   <path id="svg_15" stroke-miterlimit="10" stroke="#444053" fill="none" d="m844.409997,125.649997s-16.15,15.43 -14.09,24"/>
   <path id="svg_16" stroke-miterlimit="10" stroke="#444053" fill="none" d="m834.669997,120.199997s-15.14,2.71 -17.25,-2.26"/>
   <path id="svg_17" stroke-miterlimit="10" stroke="#444053" fill="none" d="m814.999997,101.919997s7.65,10.13 9.62,7.86"/>
   <path id="svg_18" stroke-miterlimit="10" stroke="#444053" fill="none" d="m890.819997,95.509997s-38.16,2.77 -46.79,-8.73"/>
   <path id="svg_19" stroke-miterlimit="10" stroke="#444053" fill="none" d="m806.969997,50.879997s17.91,38.43 30.91,43.33"/>
   <path id="svg_20" stroke-miterlimit="10" stroke="#444053" fill="none" d="m825.769997,32.569997s11,35.35 24.62,46.39"/>
   <path id="svg_21" stroke-width="0.75" stroke-miterlimit="10" stroke="#444053" fill="none" d="m906.879997,66.339997s-29,12.45 -46.44,-0.15"/>
   <path id="svg_22" stroke-width="0.75" stroke-miterlimit="10" stroke="#444053" fill="none" d="m851.609997,25.029997s6.63,26 15.56,32.27"/>
   <path id="svg_23" stroke-width="0.75" stroke-miterlimit="10" stroke="#444053" fill="none" d="m902.499997,37.199997s-16.31,6.17 -22.4,1.44"/>
   <path id="svg_24" stroke-miterlimit="10" stroke="#444053" fill="none" d="m801.029997,110.409997s0,22.65 -6.17,24.26"/>
   <path id="svg_25" stroke-miterlimit="10" stroke="#444053" fill="none" d="m750.609997,139.759997s24.5,2.1 35.79,-10.54"/>
   <path id="svg_26" stroke-miterlimit="10" stroke="#444053" fill="none" d="m794.709997,83.649997s-5.92,23 -22.27,29.16"/>
   <path id="svg_27" stroke-miterlimit="10" stroke="#444053" fill="none" d="m735.919997,115.559997s17.34,6 32.25,-9.32"/>
   <path id="svg_28" stroke-miterlimit="10" stroke="#444053" fill="none" d="m775.439997,63.899997s-1.64,19.51 -12.25,28.64"/>
   <path id="svg_29" stroke-miterlimit="10" stroke="#444053" fill="none" d="m736.579997,85.829997s14.39,0.09 17.76,-4.59"/>
  </g>
  <ellipse id="svg_30" opacity="0.1" fill="#f9a826" ry="15.5" rx="218" cy="734.89" cx="262.87"/>
  <path id="svg_31" fill="url(#fd95d79a-5cd9-41a5-a6ba-ef65272c784a)" d="m389.159997,650.499997c3,-5.39 6.59,-10.47 9.49,-15.93c2.65,-5 4.72,-10.3 7.11,-15.44c4.09,-8.8 9.13,-17.12 13.72,-25.68c3,-5.61 5.9,-11.72 5.32,-18.06c-0.55,-6 -4.07,-11.2 -5.43,-17c-5.54,-23.81 -18.87,-45.67 -27,-68.7c-2.08,-5.84 -4.1,-11.72 -6.7,-17.36c-5,-10.85 -12,-20.6 -19,-30.27a85.48,85.48 0 0 0 -8.4,-10.44c-2.51,-2.51 -5.33,-4.72 -7.61,-7.44c-4.7,-5.6 -6.9,-13.66 -12.78,-18c-0.1,0.26 -0.21,0.51 -0.32,0.77c-4.21,-10.75 -18.33,-17.84 -26.52,-26.75a157.44,157.44 0 0 1 -13.13,-17.25l-17.83,-25.77c-3.07,-4.44 -6.2,-9 -7.44,-14.29c-1.52,-6.38 -0.11,-13.18 -1.61,-19.56a24.67,24.67 0 0 0 -5.45,-10.36c0.17,-0.05 0.35,-0.12 0.53,-0.16c3.4,-0.91 7,-1.07 10.37,-1.88c7.35,-1.75 13.74,-6.45 21.06,-8.33c3.74,-1 7.73,-1.2 11.12,-3a9.24,9.24 0 0 0 4.3,-9.82c-2.37,-12.55 4.25,-25.27 3.13,-38c-0.3,-3.52 -1.2,-6.95 -1.78,-10.44c-1.35,-8.1 -1.1,-16.4 -0.62,-24.62a52,52 0 0 1 8.15,-10.13c4.5,-4.34 9.87,-8 13,-13.43c2.73,-4.81 3.39,-10.62 2.7,-16.12c-0.49,-4 -1.85,-8.21 -5,-10.64s-7.67,-2.61 -11.48,-1.34c-0.53,0.17 -1.05,0.38 -1.56,0.6a13.11,13.11 0 0 0 -10.34,-0.6c-3.8,1.26 -7.06,3.77 -10.12,6.38a23.13,23.13 0 0 0 -4.72,5c-1.93,3 -2.49,6.7 -3.22,10.23a100,100 0 0 1 -6.75,19.79c-0.54,1.12 -2,3.13 -3.18,5.05l-2.14,-0.44c-0.93,8.91 -8.39,15.45 -12.93,23.15c-2.21,3.74 -3.76,7.83 -5.75,11.7a113.41,113.41 0 0 1 -7.59,12.17q-4.05,6 -8.11,11.89a169,169 0 0 1 -11,14.88c-3.67,-0.3 -7.34,-0.57 -11,-0.63a89.29,89.29 0 0 0 -18.31,1.63a51,51 0 0 1 -0.65,-6.41c0,-0.13 0,-0.26 0,-0.39c0,-0.52 0.06,-1.14 0.13,-1.81a37,37 0 0 0 -1.77,-62.6a26.91,26.91 0 0 0 0.38,-3.4c0,-0.67 0,-1.35 0,-2c0,-0.34 0,-0.68 -0.07,-1a13.22,13.22 0 0 0 -0.34,-2c-0.08,-0.32 -0.17,-0.64 -0.28,-1a9.45,9.45 0 0 0 -0.83,-1.8a0.86,0.86 0 0 0 -0.07,-0.1c-0.13,-0.21 -0.26,-0.42 -0.41,-0.62s-0.13,-0.16 -0.19,-0.24a4.78,4.78 0 0 0 -0.34,-0.42l-0.25,-0.26c-0.11,-0.12 -0.22,-0.24 -0.34,-0.35l-0.28,-0.25l-0.35,-0.31l-0.32,-0.24l-0.36,-0.27l-0.35,-0.23l-0.36,-0.23c-0.12,-0.08 -0.25,-0.15 -0.38,-0.22l-0.37,-0.21l-0.4,-0.2l-0.37,-0.18l-0.44,-0.19l-0.36,-0.16l-0.48,-0.18l-0.34,-0.13l-0.52,-0.18l-0.31,-0.1l-0.57,-0.18l-0.27,-0.08l-0.62,-0.17l-0.24,-0.07l-0.65,-0.16l-0.19,-0.05l-0.72,-0.16l-0.12,0l-1.06,-0.23q-6.57,-1.35 -13.22,-2.33c-3.63,-0.54 -7.35,-1 -10.93,-0.19c-4.94,1.1 -9.06,4.44 -13.68,6.51c-5.46,2.46 -11.52,3.11 -17.34,4.46s-11.81,3.66 -15.46,8.43c-2.78,3.64 -3.89,8.27 -4.72,12.78c-6.92,37.64 0.54,76.25 1.95,114.51c0.55,14.89 -0.12,30.81 -8.56,43l24.58,-0.65c1.18,0 2.37,-0.07 3.57,-0.14s2.4,-0.16 3.58,-0.3a23.68,23.68 0 0 0 8.91,-2.67a15.37,15.37 0 0 0 3.47,-2.7c3.34,-3.44 5.12,-8.25 6.75,-12.85c0.55,-1.55 1.1,-3.12 1.59,-4.7c0.2,-0.66 0.39,-1.32 0.56,-2l0.08,-0.32l0.28,0.13c1,1.88 2.13,3.72 3.33,5.5c4.29,6.32 9.73,11.72 15.13,17.09c10.73,10.65 21.7,21.49 35.15,28.33c4.54,2.29 9.45,4.22 12.91,8c1.7,1.83 3.17,4.18 5.58,4.81c1.5,0.39 3.15,0 4.58,0.64c2.1,0.88 2.87,3.41 3.84,5.49s3.16,4.2 5.24,3.25a10.51,10.51 0 0 0 3.92,10.43a7.66,7.66 0 0 1 2.54,2.28a8.29,8.29 0 0 1 0.52,2.68a10.59,10.59 0 0 0 3.79,6.49c-1.95,3.23 -0.39,7.86 -0.34,11.89c0,3.38 -1.11,6.64 -1.87,9.93c-2.21,9.65 -1,19.75 0.8,29.48c1,5.37 2.27,10.93 5.77,15.1c1.14,1.35 2.5,2.52 3.7,3.83a35.6,35.6 0 0 1 5.65,8.61a67.5,67.5 0 0 1 6.13,19.64a35.76,35.76 0 0 0 2.9,9.9c2.19,4.78 0.19,10.66 2.15,15.54c0.89,2.19 2.53,4.06 3.06,6.35c0.75,3.33 -1,6.66 -1.47,10.05c-1.14,7.94 4.59,15.31 5.11,23.31a1.84,1.84 0 0 1 -0.28,1.35c-0.39,0.44 -1.06,0.43 -1.59,0.68c-1,0.48 -1.27,1.83 -1.59,2.95s-1.22,2.39 -2.33,2.05c-16.43,8.79 -33.44,16.91 -49.87,25.7l-7.5,4l-40.11,21.43a2.9,2.9 0 0 0 -1.61,2.62c0,0.48 0.06,1 0.1,1.45c-2.81,0.7 -5.51,1.54 -7.43,1.89c-0.79,0.15 -1.58,0.3 -2.36,0.47a2.52,2.52 0 0 0 0.36,-1a2,2 0 0 0 -1.77,-2a6.41,6.41 0 0 0 -2.89,0.38a42.15,42.15 0 0 1 -7,1.29c-2.81,0.27 -5.67,0.26 -8.39,1s-5.4,2.39 -6.5,5a12.13,12.13 0 0 0 -0.72,4.72a72.25,72.25 0 0 0 2.18,18.34a1.56,1.56 0 0 0 0.73,1.17c0.35,0.14 0.77,0 1.12,0.16a1.5,1.5 0 0 1 0.65,0.82c1.68,3.82 2.07,8.08 2.52,12.24q1,9.25 2.53,18.45c0.6,3.58 1.34,7.32 3.67,10.08c2.56,3 6.61,4.33 10.52,4.86c8.25,1.11 16.58,-0.56 24.72,-2.27c1.52,-0.32 3.15,-0.71 4.17,-1.89a4.71,4.71 0 0 0 1,-3.33c-0.19,-4.11 -3.93,-7 -7.33,-9.31l-4.64,-3.21a2,2 0 0 1 -1,-2.26l0.3,-6.07l-0.9,0c1,-4.28 2.61,-8.39 5.76,-11.33c2.17,-2 5,-3.4 7.27,-5.22a18,18 0 0 0 10.11,3.71c6,-8.08 14.45,-13.58 22.9,-19a224,224 0 0 1 21.25,-11.86q8.86,-4.38 18,-8.21c8.6,-3.62 17.36,-6.85 26.13,-10c5.85,-2.1 11.75,-4.17 17.14,-7.27c14,-8.09 23.89,-24.24 22,-40.41c-2.38,-20.4 2.71,-41.66 2.37,-62.2c-0.1,-6 -0.32,-12 -2.14,-17.75a9.48,9.48 0 0 1 1.19,1c3.64,3.4 4.52,8.8 8,12.68c2.71,3.05 6.83,5 8.47,8.72c1.25,2.85 1.07,6.7 3.68,8.34c0.74,0.47 1.62,0.67 2.36,1.13a7.9,7.9 0 0 1 2.19,2.37c2.77,3.95 5.64,8.18 5.94,13c0.13,1.91 -0.05,4.12 1.35,5.41c0.4,0.37 0.91,0.64 1.12,1.14c0.44,1 -0.72,2.06 -0.92,3.17c-0.29,1.54 1.23,2.71 2.17,4a6.29,6.29 0 0 1 0,7.41c-8.2,10.65 -9.68,25 -16.85,36.39c-2.48,3.93 -5.24,7.65 -7.64,11.63c-7.38,12.22 -11.11,26.26 -14.73,40.09a22.15,22.15 0 0 0 6.15,6.86a34,34 0 0 1 -6.85,12.65a31.84,31.84 0 0 0 -2.26,2.83a5.5,5.5 0 0 0 -2.23,-1.68a79.23,79.23 0 0 0 -2,17.5c0,3.88 0.53,8.31 3.68,10.55a13.05,13.05 0 0 0 4.09,1.69l6.86,2a7.17,7.17 0 0 0 3.79,0.37c0.81,-0.23 1.53,-0.73 2.36,-0.89a5.79,5.79 0 0 1 2.66,0.35l5.93,1.73a39.2,39.2 0 0 1 5.86,2.07c1.69,0.81 3.25,1.86 4.91,2.76a59.33,59.33 0 0 0 8.57,3.52l10.22,3.52a37.19,37.19 0 0 0 8.86,2.3c2.1,0.18 4.23,0 6.3,0.36c1.58,0.27 3.11,0.84 4.7,1a12.32,12.32 0 0 0 7.4,-2.2a6.61,6.61 0 0 0 2.14,-1.93c1.5,-2.34 0.21,-5.43 -1.25,-7.79c-2.71,-4.38 -6.1,-8.48 -10.57,-11c-1.81,-1 -3.77,-1.74 -5.64,-2.66c-5.32,-2.6 -9.33,-6.94 -14.36,-9.91a3.41,3.41 0 0 0 -4.31,0.29c-4.18,-2.71 -8.7,-5.36 -11,-9.77a22,22 0 0 1 -2,-6.75c2.35,0.56 4.72,1 7.11,1.39c3.89,-15.08 8.14,-30.43 15.75,-44.03zm-96.07,-426.49c-0.2,1.13 -0.42,2.25 -0.66,3.37c-2,9.39 -4.86,19.91 -11.4,26.9a25,25 0 0 1 -7.38,4.87l-0.73,0.36c4.71,-12.58 12.21,-24.24 20.17,-35.5z"/>
  <path id="svg_32" fill="#fbbebe" d="m302.769997,168.309997c0.74,-3.49 1.3,-7.15 3.23,-10.16a23.21,23.21 0 0 1 4.73,-5c3.06,-2.59 6.33,-5.08 10.14,-6.34s8.29,-1.09 11.49,1.33s4.55,6.59 5.05,10.57c0.68,5.47 0,11.23 -2.71,16c-3.1,5.41 -8.48,9 -13,13.34a51.62,51.62 0 0 0 -8.47,10.56a30.09,30.09 0 0 1 -3.86,5.64a7.33,7.33 0 0 1 -6.13,2.45c-1.93,-0.31 -3.5,-1.65 -5,-2.93c-1.85,-1.62 -6.83,-4.51 -7,-7.08c-0.12,-2.08 3.77,-6.8 4.72,-8.75a98.52,98.52 0 0 0 6.81,-19.63z"/>
  <path id="svg_33" opacity="0.1" d="m302.769997,168.309997c0.74,-3.49 1.3,-7.15 3.23,-10.16a23.21,23.21 0 0 1 4.73,-5c3.06,-2.59 6.33,-5.08 10.14,-6.34s8.29,-1.09 11.49,1.33s4.55,6.59 5.05,10.57c0.68,5.47 0,11.23 -2.71,16c-3.1,5.41 -8.48,9 -13,13.34a51.62,51.62 0 0 0 -8.47,10.56a30.09,30.09 0 0 1 -3.86,5.64a7.33,7.33 0 0 1 -6.13,2.45c-1.93,-0.31 -3.5,-1.65 -5,-2.93c-1.85,-1.62 -6.83,-4.51 -7,-7.08c-0.12,-2.08 3.77,-6.8 4.72,-8.75a98.52,98.52 0 0 0 6.81,-19.63z"/>
  <path id="svg_34" fill="#f9a826" d="m197.769997,268.259997a89.71,89.71 0 0 1 24.57,-3c13.83,0.2 28.07,3.55 41.24,-0.69a71.54,71.54 0 0 0 9.89,-4.29c2.65,-1.32 5.35,-2.68 7.38,-4.84c6.55,-6.94 9.37,-17.39 11.42,-26.72s2.58,-18.91 3.11,-28.44c3.41,1.59 7,3.16 10.78,2.84s7.55,-3.2 7.53,-7c-0.56,8.83 -1,17.77 0.49,26.49c0.58,3.46 1.48,6.87 1.79,10.37c1.12,12.64 -5.51,25.27 -3.14,37.74a9.15,9.15 0 0 1 -4.3,9.75c-3.4,1.83 -7.4,2.06 -11.14,3c-7.33,1.87 -13.73,6.53 -21.09,8.27c-3.43,0.81 -7,1 -10.38,1.87c-4.86,1.28 -9.27,4.06 -14.22,4.94c-3.71,0.66 -7.53,0.21 -11.28,0.53c-3.26,0.27 -6.46,1.13 -9.73,1.21c-8,0.2 -15.57,-4.33 -20.89,-10.34s-8.69,-14.41 -12.03,-21.69z"/>
  <path id="svg_35" opacity="0.1" d="m197.769997,268.259997a89.71,89.71 0 0 1 24.57,-3c13.83,0.2 28.07,3.55 41.24,-0.69a71.54,71.54 0 0 0 9.89,-4.29c2.65,-1.32 5.35,-2.68 7.38,-4.84c6.55,-6.94 9.37,-17.39 11.42,-26.72s2.58,-18.91 3.11,-28.44c3.41,1.59 7,3.16 10.78,2.84s7.55,-3.2 7.53,-7c-0.56,8.83 -1,17.77 0.49,26.49c0.58,3.46 1.48,6.87 1.79,10.37c1.12,12.64 -5.51,25.27 -3.14,37.74a9.15,9.15 0 0 1 -4.3,9.75c-3.4,1.83 -7.4,2.06 -11.14,3c-7.33,1.87 -13.73,6.53 -21.09,8.27c-3.43,0.81 -7,1 -10.38,1.87c-4.86,1.28 -9.27,4.06 -14.22,4.94c-3.71,0.66 -7.53,0.21 -11.28,0.53c-3.26,0.27 -6.46,1.13 -9.73,1.21c-8,0.2 -15.57,-4.33 -20.89,-10.34s-8.69,-14.41 -12.03,-21.69z"/>
  <path id="svg_36" fill="#3f3d56" d="m557.399997,280.549997a68.84,68.84 0 1 1 -68.84,68.83a68.84,68.84 0 0 1 68.84,-68.83m0,-17a85.84,85.84 0 1 0 85.84,85.83a85.93,85.93 0 0 0 -85.84,-85.83z"/>
  <rect id="svg_37" fill="#3f3d56" height="21.18" width="20.12" y="243.47" x="544.69"/>
  <rect id="svg_38" fill="#3f3d56" transform="rotate(31 180.3099975585934,-386.14001464843744) " height="21.18" width="20.12" y="-55.610015" x="869.349998"/>
  <rect id="svg_39" fill="#3f3d56" transform="rotate(61 611.530029296875,-523.6799926757812) " height="21.18" width="20.12" y="-158.789993" x="1335.870029"/>
  <rect id="svg_40" fill="#3f3d56" transform="rotate(122 1429.4200439453125,24.260000228881857) " height="21.18" width="20.12" y="485.76" x="2154.230044"/>
  <rect id="svg_41" fill="#3f3d56" transform="rotate(119 1080.7900390625,-16.56999969482419) " height="21.18" width="20.12" y="348.32" x="1641.580039"/>
  <rect id="svg_42" fill="#3f3d56" transform="rotate(58 573.2600097656249,-336.60000610351557) " height="21.18" width="20.12" y="124.899994" x="1133.59001"/>
  <rect id="svg_43" fill="#3f3d56" transform="rotate(149 1206.1999511718752,246.52000427246097) " height="21.18" width="20.12" y="577.050004" x="1802.299951"/>
  <rect id="svg_44" fill="#3f3d56" height="21.18" width="20.12" y="434.11" x="544.69"/>
  <rect id="svg_45" fill="#3f3d56" transform="rotate(-31 -256.63000488281256,357.7099914550781) " height="21.18" width="20.12" y="854.369991" x="432.409995"/>
  <rect id="svg_46" fill="#3f3d56" transform="rotate(-149 769.2600097656251,1179.4399414062502) " height="21.18" width="20.12" y="1676.099941" x="1365.36001"/>
  <rect id="svg_47" fill="#3f3d56" height="18" width="24.36" y="340.91" x="449.38"/>
  <rect id="svg_48" fill="#3f3d56" transform="rotate(-180 1401.719970703125,774.6199951171875) " height="18" width="24.36" y="1190.329995" x="2138.019971"/>
  <path id="svg_49" fill="#3f3d56" d="m717.319997,156.639997a68.84,68.84 0 1 1 -68.84,68.83a68.84,68.84 0 0 1 68.84,-68.83m0,-17a85.84,85.84 0 1 0 85.84,85.83a85.93,85.93 0 0 0 -85.84,-85.83z"/>
  <rect id="svg_50" fill="#3f3d56" height="21.18" width="20.12" y="119.57" x="704.61"/>
  <rect id="svg_51" fill="#3f3d56" transform="rotate(31 139.33999633789023,-486.20999145507807) " height="21.18" width="20.12" y="-279.589991" x="988.299996"/>
  <rect id="svg_52" fill="#3f3d56" transform="rotate(61 585.5499877929688,-727.3900146484375) " height="21.18" width="20.12" y="-486.410015" x="1469.809988"/>
  <rect id="svg_53" fill="#3f3d56" transform="rotate(122 1569.0000000000002,-300.9299926757812) " height="21.18" width="20.12" y="36.660007" x="2453.73"/>
  <rect id="svg_54" fill="#3f3d56" transform="rotate(119 1209.8599853515625,-340.41000366210926) " height="21.18" width="20.12" y="-99.430004" x="1930.569985"/>
  <rect id="svg_55" fill="#3f3d56" transform="rotate(58 543.3499755859375,-530.4600219726561) " height="21.18" width="20.12" y="-192.870022" x="1263.599976"/>
  <rect id="svg_56" fill="#3f3d56" transform="rotate(149 1439.3800048828123,-65.97000122070314) " height="21.18" width="20.12" y="140.649999" x="2195.400005"/>
  <rect id="svg_57" fill="#3f3d56" height="21.18" width="20.12" y="310.2" x="704.61"/>
  <rect id="svg_58" fill="#3f3d56" transform="rotate(-31 -169.97000122070335,422.38000488281244) " height="21.18" width="20.12" y="795.130005" x="678.989999"/>
  <rect id="svg_59" fill="#3f3d56" transform="rotate(-149 1130.0699462890625,1031.6800537109373) " height="21.18" width="20.12" y="1404.430054" x="1886.089946"/>
  <rect id="svg_60" fill="#3f3d56" height="18" width="24.36" y="217" x="609.29"/>
  <rect id="svg_61" fill="#3f3d56" transform="rotate(-180 1721.56005859375,526.7999877929688) " height="18" width="24.36" y="818.599988" x="2617.770059"/>
  <path id="svg_62" fill="#3f3d56" d="m397.439997,151.339997c0.81,0 1.62,0 2.43,0a68.84,68.84 0 0 1 -2.34,137.64c-0.81,0 -1.62,0 -2.44,0a68.84,68.84 0 0 1 2.35,-137.64m0,-17l0,0a85.84,85.84 0 0 0 -2.94,171.63c1,0 2,0.05 3,0.05a85.84,85.84 0 0 0 2.93,-171.63c-1,0 -2,-0.05 -3,-0.05l0.01,0z"/>
  <rect id="svg_63" fill="#3f3d56" transform="rotate(1.9900000095367432 -88.01000213622963,-91.80000305175795) " height="21.18" width="20.12" y="97.239997" x="395.299998"/>
  <rect id="svg_64" fill="#3f3d56" transform="rotate(32.9900016784668 108.4400024414063,-335.489990234375) " height="21.18" width="20.12" y="-132.49999" x="640.410002"/>
  <rect id="svg_65" fill="#3f3d56" transform="rotate(62.9900016784668 441.20001220703136,-452.0899963378908) " height="21.18" width="20.12" y="-213.539996" x="1007.270012"/>
  <rect id="svg_66" fill="#3f3d56" transform="rotate(123.98999786376953 1085.1199951171877,-11.130000114440938) " height="21.18" width="20.12" y="323.99" x="1648.299995"/>
  <rect id="svg_67" fill="#3f3d56" transform="rotate(120.98999786376953 738.6400146484375,-59.759998321533146) " height="21.18" width="20.12" y="173.120002" x="1141.260015"/>
  <rect id="svg_68" fill="#3f3d56" transform="matrix(0.5,0.87,-0.87,0.5,403.55,-258.9) " height="21.18" width="20.12" y="329.42" x="398.8"/>
  <rect id="svg_69" fill="#3f3d56" transform="rotate(150.99000549316406 848.7399902343751,101.66999816894534) " height="21.18" width="20.12" y="301.429998" x="1287.82999"/>
  <rect id="svg_70" fill="#3f3d56" transform="rotate(1.9900000095367432 -81.40000152587807,-91.45999908447284) " height="21.18" width="20.12" y="288.090001" x="395.299998"/>
  <rect id="svg_71" fill="#3f3d56" transform="rotate(-29.010000228881836 -212.03999328613284,232.91000366210932) " height="21.18" width="20.12" y="601.930004" x="314.170007"/>
  <rect id="svg_72" fill="#3f3d56" transform="rotate(-147.00999450683594 515.1400146484376,858.6900024414065) " height="21.18" width="20.12" y="1224.480002" x="948.470015"/>
  <rect id="svg_73" fill="#3f3d56" transform="rotate(1.9900000095367432 -84.84999847412148,-88.40000152587864) " height="18" width="24.36" y="194.779998" x="299.880002"/>
  <rect id="svg_74" fill="#3f3d56" transform="rotate(-178.00999450683594 1071.0100097656252,543.0999755859375) " height="18" width="24.36" y="832.929976" x="1647.31001"/>
  <path id="svg_75" fill="#fbbebe" d="m175.769997,659.109997a20.66,20.66 0 0 0 -7.09,2.21c-3,1.83 -4.85,5.06 -6.17,8.32c-3.31,8.18 -4,17.16 -4.14,26c-0.12,7.12 0.12,14.41 2.67,21.05a13.3,13.3 0 0 0 3.53,5.51a12.56,12.56 0 0 0 4.83,2.34c3.8,1 8.21,1 11.32,-1.4c3.46,-2.71 4.33,-7.48 5.06,-11.81c1,-5.84 2.39,-12 6.73,-16.07c3.22,-3 7.83,-4.5 10.17,-8.22c2.79,-4.42 1.32,-10.19 -0.46,-15.11c-1.55,-4.26 -3.82,-12.91 -8.28,-15.09s-13.53,1.43 -18.17,2.27z"/>
  <path id="svg_76" fill="#fbbebe" d="m340.239997,680.059997a33.45,33.45 0 0 1 -7,12.91c-2,2.28 -4.45,5.05 -3.4,7.88a7.05,7.05 0 0 0 1.86,2.49c14.66,14.35 35.17,21.33 55.52,23.87a1.91,1.91 0 0 0 1,0c0.6,-0.27 0.74,-1 0.82,-1.67a21.13,21.13 0 0 0 0,-6.4c-1,-5 -5.35,-8.47 -9.61,-11.21s-8.92,-5.4 -11.3,-9.87c-3,-5.56 -1.71,-12.8 -5.24,-18c-2.86,-4.23 -8.17,-6 -13.21,-6.83c-1.75,-0.27 -5.47,-2.19 -7,-1.3c-1.56,0.9 -1.91,6.39 -2.44,8.13z"/>
  <path id="svg_77" fill="#3f3d56" d="m173.769997,658.589997a2,2 0 0 0 -1.77,-2a6.4,6.4 0 0 0 -2.89,0.37a42.25,42.25 0 0 1 -7,1.28c-2.81,0.27 -5.68,0.26 -8.41,1s-5.4,2.37 -6.51,5a12.39,12.39 0 0 0 -0.72,4.69a71.64,71.64 0 0 0 2.18,18.21a1.58,1.58 0 0 0 0.74,1.17c0.35,0.14 0.77,0 1.12,0.16a1.48,1.48 0 0 1 0.65,0.81c1.69,3.8 2.08,8 2.53,12.16q1,9.19 2.53,18.32c0.6,3.55 1.34,7.28 3.68,10c2.56,3 6.62,4.29 10.53,4.82c8.26,1.1 16.6,-0.56 24.76,-2.26a7.22,7.22 0 0 0 4.17,-1.87a4.66,4.66 0 0 0 1,-3.31c-0.19,-4.08 -3.94,-7 -7.34,-9.24l-4.68,-3.15a2.43,2.43 0 0 1 -0.82,-0.74a2.64,2.64 0 0 1 -0.23,-1.5l0.3,-6a17.18,17.18 0 0 0 -15,9.31c-0.65,1.29 -1.26,2.8 -2.61,3.3c-1.67,0.63 -3.53,-0.78 -4.09,-2.47a10.76,10.76 0 0 1 0.15,-5.28c2.74,-14.68 2.1,-29.77 3.77,-44.61a10.16,10.16 0 0 1 1.49,-4.7c0.81,-1.12 2.32,-2.1 2.47,-3.47z"/>
  <path id="svg_78" fill="#3f3d56" d="m378.009997,715.509997c0.69,1.14 1.76,2 2.4,3.18s0.63,2.9 -0.52,3.57a3.52,3.52 0 0 1 -2.16,0.22a73.1,73.1 0 0 1 -39.53,-17.88a27.71,27.71 0 0 1 -4.84,-5.31c-1.29,-2 -2.38,-4.35 -4.58,-5.17a78.17,78.17 0 0 0 -2,17.38c0,3.85 0.53,8.25 3.68,10.48a13.17,13.17 0 0 0 4.1,1.67l6.87,1.94a7.31,7.31 0 0 0 3.8,0.37c0.81,-0.22 1.53,-0.73 2.36,-0.88a5.84,5.84 0 0 1 2.67,0.34l5.93,1.73a39.24,39.24 0 0 1 5.87,2c1.69,0.8 3.26,1.85 4.91,2.74a58.76,58.76 0 0 0 8.59,3.49l10.44,3.62a36.83,36.83 0 0 0 8.88,2.28c2.1,0.18 4.23,0 6.31,0.36c1.58,0.27 3.11,0.84 4.71,1a12.45,12.45 0 0 0 7.4,-2.19a6.69,6.69 0 0 0 2.15,-1.91c1.5,-2.33 0.21,-5.4 -1.26,-7.75c-2.71,-4.34 -6.1,-8.41 -10.58,-10.89c-1.82,-1 -3.78,-1.74 -5.65,-2.65c-5.32,-2.58 -9.35,-6.89 -14.38,-9.84c-4.75,-2.76 -7.81,4.43 -5.57,8.1z"/>
  <path id="svg_79" fill="#fbbebe" d="m231.379997,295.199997a43.25,43.25 0 0 1 -18.46,7.18a74.46,74.46 0 0 1 -10.45,0.56a265.8,265.8 0 0 1 -43.46,-3.63c5.72,-6.3 11.5,-13 13.66,-21.26a34.92,34.92 0 0 0 0.65,-13.32a99.7,99.7 0 0 0 -4.06,-16.77a116.2,116.2 0 0 0 18.37,-0.47c3.48,-0.35 12,-3.52 15,-1.12c2.81,2.23 0.69,10.12 0.64,13.76c0,0.13 0,0.26 0,0.39a44.28,44.28 0 0 0 3.51,16.06c4.4,9.84 13.81,17.92 24.6,18.62z"/>
  <path id="svg_80" opacity="0.1" d="m203.309997,260.079997a36.68,36.68 0 0 1 -30,4.6a99.7,99.7 0 0 0 -4.06,-16.77a116.2,116.2 0 0 0 18.37,-0.47c3.48,-0.35 12,-3.52 15,-1.12c2.86,2.23 0.74,10.12 0.69,13.76z"/>
  <circle id="svg_81" fill="#fbbebe" r="36.6" cy="227.74" cx="183.27"/>
  <path id="svg_82" fill="#f9a826" d="m338.559997,412.939997a17,17 0 0 1 -8.25,14.69a32.6,32.6 0 0 1 -9,3.15c-16.74,4 -33.89,7.29 -51.08,6.31c-3.72,-0.21 -7.5,-0.65 -10.84,-2.28s-6.19,-4.68 -6.69,-8.36a7.92,7.92 0 0 0 -0.53,-2.66a7.5,7.5 0 0 0 -2.54,-2.26a10.41,10.41 0 0 1 -3.86,-10.33c-2.09,0.93 -4.27,-1.17 -5.25,-3.24s-1.75,-4.57 -3.85,-5.44c-1.43,-0.61 -3.08,-0.25 -4.59,-0.64c-2.41,-0.62 -3.88,-3 -5.58,-4.78c-3.47,-3.71 -8.39,-5.63 -12.93,-7.91c-13.47,-6.79 -24.45,-17.55 -35.2,-28.13c-5.41,-5.33 -10.86,-10.7 -15.15,-17c-1.21,-1.77 -2.3,-3.59 -3.33,-5.46a153.52,153.52 0 0 1 -8.44,-19.31c-1.36,-3.54 -2.74,-7.28 -2.18,-11c0.05,-0.34 0.12,-0.68 0.2,-1a21.05,21.05 0 0 1 3.32,-6.71c3.72,-5.47 8.6,-10.65 15,-12.33s12.79,0.35 19.29,1.73a49.15,49.15 0 0 0 6.55,1c6.89,0.49 13.71,-1.36 20.37,-3.2l7.26,-2c3.64,-1 5.46,-5.4 9.14,-6.17a12.83,12.83 0 0 1 4.93,0.25c7.47,1.42 15,3.25 21.57,7.05a35.54,35.54 0 0 1 4.19,2.85c4.68,3.7 8.38,8.63 9.74,14.39c1.5,6.33 0.09,13.09 1.61,19.42c1.24,5.23 4.38,9.79 7.46,14.2l17.87,25.52a158.57,158.57 0 0 0 13.15,17.14c9.58,10.43 27.4,18.32 27.64,32.51z"/>
  <path id="svg_83" fill="#fbbebe" d="m290.839997,168.309997c0.74,-3.49 1.29,-7.15 3.22,-10.16a23.21,23.21 0 0 1 4.73,-5c3.07,-2.59 6.33,-5.08 10.14,-6.34s8.29,-1.09 11.49,1.33s4.55,6.59 5.05,10.57c0.68,5.47 0,11.23 -2.71,16c-3.1,5.41 -8.48,9 -13,13.34a52,52 0 0 0 -8.47,10.56a30.09,30.09 0 0 1 -3.86,5.64a7.33,7.33 0 0 1 -6.13,2.45c-1.92,-0.31 -3.5,-1.65 -5,-2.93c-1.85,-1.62 -6.84,-4.51 -7,-7.08c-0.12,-2.08 3.77,-6.8 4.72,-8.75a99.19,99.19 0 0 0 6.82,-19.63z"/>
  <path id="svg_84" fill="#3f3d56" d="m419.469997,592.269997c-4.6,8.49 -9.64,16.76 -13.74,25.5c-2.39,5.11 -4.46,10.37 -7.12,15.34c-2.9,5.42 -6.47,10.46 -9.5,15.82c-7.63,13.51 -11.88,28.75 -15.81,43.76a87.17,87.17 0 0 1 -31.16,-11c-0.65,-0.38 -1.27,-0.78 -1.87,-1.21a22.24,22.24 0 0 1 -6.29,-6.93c3.63,-13.73 7.36,-27.69 14.75,-39.82c2.41,-4 5.17,-7.65 7.65,-11.55c7.19,-11.3 8.67,-25.56 16.88,-36.14a6.21,6.21 0 0 0 0,-7.36c-0.95,-1.23 -2.46,-2.4 -2.18,-3.92c0.21,-1.11 1.37,-2.11 0.92,-3.15c-0.21,-0.5 -0.72,-0.77 -1.12,-1.13c-1.4,-1.29 -1.22,-3.49 -1.34,-5.38c-0.31,-4.79 -3.18,-9 -6,-12.91a8,8 0 0 0 -2.19,-2.36c-0.74,-0.45 -1.62,-0.65 -2.36,-1.11c-2.62,-1.64 -2.43,-5.46 -3.69,-8.29c-1.64,-3.73 -5.77,-5.63 -8.48,-8.66c-3.45,-3.85 -4.33,-9.22 -8,-12.59a10,10 0 0 0 -1.19,-1c1.82,5.65 2,11.68 2.13,17.63c0.35,20.39 -4.75,41.5 -2.36,61.76c1.88,16.07 -8,32.11 -22.05,40.14c-5.4,3.08 -11.3,5.14 -17.16,7.23c-8.79,3.11 -17.55,6.32 -26.17,9.92q-9.14,3.78 -18,8.15a227.43,227.43 0 0 0 -21.29,11.78c-8.46,5.38 -16.92,10.85 -22.93,18.88c-5.81,-0.16 -11.13,-3.65 -14.81,-8.15s-6,-10 -8.11,-15.36c-1.87,-4.65 -3.71,-9.45 -3.85,-14.46a2.86,2.86 0 0 1 1.74,-2.5l40.17,-21.29l7.51,-4c16.45,-8.73 33.49,-16.8 49.94,-25.52c1.11,0.33 2,-0.93 2.33,-2s0.56,-2.45 1.6,-2.93c0.52,-0.25 1.2,-0.24 1.59,-0.68a1.9,1.9 0 0 0 0.28,-1.33c-0.53,-8 -6.27,-15.27 -5.12,-23.16c0.49,-3.36 2.22,-6.67 1.47,-10c-0.53,-2.29 -2.17,-4.14 -3.06,-6.31c-2,-4.85 0,-10.69 -2.16,-15.44a35.7,35.7 0 0 1 -2.9,-9.84a66.83,66.83 0 0 0 -6.14,-19.5a35.55,35.55 0 0 0 -5.65,-8.55c-1.21,-1.3 -2.57,-2.46 -3.72,-3.81c-3.49,-4.14 -4.78,-9.66 -5.77,-15c-1.8,-9.67 -3,-19.7 -0.8,-29.28c0.76,-3.27 1.92,-6.51 1.87,-9.86c-0.05,-4.43 -2,-9.6 1.08,-12.8a9.94,9.94 0 0 1 4.5,-2.31c7.08,-2.11 14.45,-3.07 21.78,-4l33.55,-4.39c3.84,-0.51 7.77,-1 11.16,-2.91c4.55,-2.51 7.57,-7.16 9.42,-12c5.89,4.3 8.09,12.31 12.79,17.86c2.29,2.71 5.12,4.9 7.63,7.39a85.62,85.62 0 0 1 8.41,10.37c7,9.61 14,19.29 19,30.07c2.61,5.6 4.63,11.44 6.71,17.25c8.19,22.87 21.54,44.58 27.08,68.22c1.36,5.78 4.89,11 5.44,16.91c0.62,6.27 -2.28,12.33 -5.29,17.91z"/>
  <path id="svg_85" opacity="0.1" d="m243.769997,402.329997a10.3,10.3 0 0 0 -1.24,4.95c0.75,-3.7 5.84,-5.75 6.17,-9.41c0.15,-1.69 -0.16,-1.61 -1.2,-0.72c-1.58,1.37 -2.27,3.73 -3.73,5.18z"/>
  <path id="svg_86" opacity="0.1" d="m259.279997,413.569997a7.63,7.63 0 0 0 -2.32,3.43a8.7,8.7 0 0 0 -0.47,6c0.75,-0.35 1,-1.27 1.23,-2.07a14.44,14.44 0 0 1 1.59,-3.54c0.6,-1 3.37,-3.23 3.36,-4.28c-0.03,-1.61 -2.65,-0.11 -3.39,0.46z"/>
  <path id="svg_87" opacity="0.1" d="m261.069997,289.689997a37.74,37.74 0 0 1 -7.72,5.14c-7.25,3.67 -15.28,5.61 -22.58,9.17a111.8,111.8 0 0 0 -10.48,6.11l-21.7,13.75a23.27,23.27 0 0 0 -4.78,3.63c-2.61,2.78 -2.6,7.67 -5,10.65s-6.54,4.66 -10.53,4.86a34.21,34.21 0 0 1 -11.73,-2a60.9,60.9 0 0 1 -6.7,-2.44a31.57,31.57 0 0 1 -6.44,-3.68c-3.87,-2.92 -7,-7.17 -7.58,-12a23.7,23.7 0 0 1 1.29,-9.78a37.53,37.53 0 0 1 2.31,-5.93a23.86,23.86 0 0 1 1.84,-3.12c5,-7.06 13.77,-10.37 22.26,-12c4.46,-0.87 9,-1.4 13.51,-2.16a49.15,49.15 0 0 0 6.55,1c6.89,0.49 13.71,-1.36 20.37,-3.2l7.26,-2c3.64,-1 5.46,-5.4 9.14,-6.17a12.83,12.83 0 0 1 4.93,0.25c7.47,1.42 15,3.25 21.57,7.05a35.54,35.54 0 0 1 4.21,2.87z"/>
  <path id="svg_88" fill="#f9a826" d="m278.769997,192.549997c-0.93,8.85 -8.4,15.35 -13,23c-2.21,3.71 -3.76,7.78 -5.75,11.62a115.18,115.18 0 0 1 -7.6,12.1l-8.13,11.8c-4.78,6.94 -9.61,13.94 -15.72,19.75c-10.65,1.81 -19.58,9.72 -29.68,13.56c-8.08,3.07 -16.89,3.49 -25.37,5.14s-17.27,5 -22.25,12a31.41,31.41 0 0 0 -4.16,9a23.32,23.32 0 0 0 -1.28,9.77c0.61,4.82 3.7,9.06 7.57,12s8.5,4.68 13.14,6.12a34.45,34.45 0 0 0 11.73,2c4,-0.2 8.06,-1.74 10.54,-4.86s2.36,-7.87 5,-10.65a23.34,23.34 0 0 1 4.79,-3.63l21.7,-13.75a111.8,111.8 0 0 1 10.47,-6.07c7.3,-3.57 15.33,-5.5 22.58,-9.17s14,-9.73 15.45,-17.73c4.42,-24.58 21.43,-45.3 36,-65.6c-0.48,-0.1 -0.33,-1.19 -0.51,-1.65c-1.86,-4.82 -6,-8.45 -10.66,-10.74s-9.86,-2.93 -14.86,-4.01z"/>
  <path id="svg_89" fill="#3f3d56" d="m202.049997,192.729997a13.56,13.56 0 0 0 -1.51,-7.72c-2.41,-4 -7.46,-5.41 -12,-6.35q-6.59,-1.35 -13.24,-2.32c-3.64,-0.53 -7.37,-1 -10.95,-0.18c-5,1.09 -9.07,4.4 -13.7,6.46c-5.47,2.44 -11.53,3.08 -17.37,4.43s-11.82,3.64 -15.48,8.38c-2.78,3.6 -3.89,8.2 -4.72,12.68c-6.93,37.39 0.53,75.74 1.95,113.74c0.55,14.79 -0.12,30.6 -8.57,42.75l24.61,-0.65c6.3,-0.16 13.07,-0.49 18,-4.38c4.36,-3.42 6.42,-8.93 8.29,-14.15c1.47,-4.11 2.95,-8.3 3.14,-12.66c0.39,-8.93 -4.68,-17.7 -3,-26.49c1.23,-6.56 6,-11.86 11.11,-16.17s10.79,-8 14.92,-13.28c7.38,-9.33 8.79,-22.08 7.87,-33.93c-0.55,-7.05 -1.81,-14.1 -1.2,-21.15c0.46,-5.27 2.13,-10.71 5.58,-14.82c3.88,-4.66 5.93,-7.58 6.27,-14.19z"/>
  <path id="svg_90" opacity="0.1" d="m200.539997,185.009997c-2.37,-3.94 -7.29,-5.36 -11.8,-6.3a11.63,11.63 0 0 1 5.84,4.6a13.48,13.48 0 0 1 1.51,7.72c-0.34,6.6 -2.39,9.52 -6.31,14.19c-3.45,4.11 -5.12,9.54 -5.58,14.82c-0.61,7.05 0.65,14.1 1.2,21.15c0.92,11.85 -0.49,24.6 -7.86,33.93c-4.14,5.24 -9.82,9 -14.92,13.28s-9.89,9.61 -11.12,16.17c-1.65,8.79 3.42,17.56 3,26.49c-0.19,4.36 -1.68,8.55 -3.15,12.66c-1.86,5.22 -3.93,10.72 -8.29,14.14c-5,3.89 -11.73,4.23 -18,4.39l-17.43,0.46c-0.39,0.64 -0.79,1.28 -1.22,1.89l24.61,-0.65c6.3,-0.16 13.07,-0.49 18,-4.38c4.36,-3.42 6.42,-8.93 8.29,-14.15c1.47,-4.11 2.95,-8.3 3.14,-12.66c0.39,-8.93 -4.68,-17.7 -3,-26.49c1.23,-6.56 6,-11.86 11.11,-16.17s10.79,-8 14.92,-13.28c7.38,-9.33 8.79,-22.08 7.87,-33.93c-0.55,-7.05 -1.81,-14.1 -1.2,-21.15c0.46,-5.27 2.13,-10.71 5.58,-14.82c3.92,-4.66 6,-7.58 6.31,-14.19a13.56,13.56 0 0 0 -1.5,-7.72z"/>
  <path id="svg_91" opacity="0.1" d="m385.439997,570.379997l-45.17,110.15a22.24,22.24 0 0 1 -6.29,-6.93c3.63,-13.73 7.36,-27.69 14.75,-39.82c2.41,-4 5.17,-7.65 7.65,-11.55c7.19,-11.3 8.67,-25.56 16.88,-36.14a6.21,6.21 0 0 0 0,-7.36c-0.95,-1.23 -2.46,-2.4 -2.18,-3.92c0.21,-1.11 1.37,-2.11 0.92,-3.15c-0.21,-0.5 -0.72,-0.77 -1.12,-1.13c-1.4,-1.29 -1.22,-3.49 -1.34,-5.38c-0.31,-4.79 -3.18,-9 -6,-12.91a8,8 0 0 0 -2.19,-2.36c-0.74,-0.45 -1.62,-0.65 -2.36,-1.11c-2.62,-1.64 -2.43,-5.46 -3.69,-8.29c-1.64,-3.73 -5.77,-5.63 -8.48,-8.66c-3.45,-3.85 -4.33,-9.22 -8,-12.59l-0.31,-0.78l3.52,-21.25l43.41,73.18z"/>
 </g>
</svg>