<svg width="936.51" height="707.22" xmlns="http://www.w3.org/2000/svg">
 <defs>
  <linearGradient y2="0" x2="0.5" y1="1" x1="0.5" id="c3b6ae59-f5c8-462f-a7a0-99e79fdd0e5d">
   <stop stop-opacity="0.25" stop-color="gray" offset="0"/>
   <stop stop-opacity="0.12" stop-color="gray" offset="0.54"/>
   <stop stop-opacity="0.1" stop-color="gray" offset="1"/>
  </linearGradient>
 </defs>
 <title>Lighthouse</title>
 <g>
  <title>background</title>
  <rect fill="none" id="canvas_background" height="402" width="582" y="-1" x="-1"/>
 </g>
 <g>
  <title>Layer 1</title>
  <polygon id="svg_1" fill="#3ad29f" points="570.22 408.02 580.26 442.79 590.3 477.56 570.22 477.56 550.14 477.56 560.18 442.79 570.22 408.02"/>
  <polygon id="svg_2" fill="#3ad29f" points="589.99 403.31 600.02 438.08 610.06 472.86 589.99 472.86 569.91 472.86 579.95 438.08 589.99 403.31"/>
  <polygon id="svg_3" fill="#3ad29f" points="609.75 403.31 619.79 438.08 629.83 472.86 609.75 472.86 589.67 472.86 599.71 438.08 609.75 403.31"/>
  <polygon id="svg_4" fill="#3ad29f" points="762.4 424.54 772.44 459.31 782.48 494.09 762.4 494.09 742.32 494.09 752.36 459.31 762.4 424.54"/>
  <polygon id="svg_5" fill="#3ad29f" points="120.25 390.33 137.44 422.18 154.63 454.03 135.02 458.29 115.4 462.56 117.82 426.44 120.25 390.33"/>
  <polygon id="svg_6" fill="#e0e0e0" points="0 707.09 38 528.09 66 491.09 94 443.09 146 412.09 185 390.09 201 438.09 231.74 458.67 251 487.09 281 477.09 319 446.09 348 438.09 389 412.09 427 422.09 466 408.09 492 390.09 517 420.09 531 459.09 534 473.09 570 473.09 610 473.09 635 446.09 674 438.09 712 438.09 738 446.09 784 459.09 886 707.09 0 707.09"/>
  <g id="svg_7" opacity="0.3">
   <rect id="svg_8" fill="#e0e0e0" ry="15.06" rx="15.06" height="30.12" width="154.36" y="178.78" x="145.62"/>
   <rect id="svg_9" fill="#e0e0e0" ry="15.06" rx="15.06" height="30.12" width="154.36" y="208.9" x="107.97"/>
   <rect id="svg_10" fill="#e0e0e0" ry="15.06" rx="15.06" height="30.12" width="154.36" y="239.02" x="145.62"/>
  </g>
  <g id="svg_11" opacity="0.5">
   <polygon id="svg_12" fill="url(#c3b6ae59-f5c8-462f-a7a0-99e79fdd0e5d)" points="427 672.4 226 672.4 237.77 143.43 415.23 143.43 427 672.4"/>
  </g>
  <polygon id="svg_13" fill="#fff" points="423.08 672.4 230.13 672.4 241.42 143.43 411.78 143.43 423.08 672.4"/>
  <g id="svg_14" opacity="0.05">
   <polygon id="svg_15" points="276.25 672.4 230.13 672.4 241.42 143.43 264.95 143.43 276.25 672.4"/>
  </g>
  <path id="svg_16" fill="#f9a826" d="m200.95,472.86l252.25,0a0,0 0 0 1 0,0l0,0a35.77,35.77 0 0 1 -35.77,35.77l-180.71,0a35.77,35.77 0 0 1 -35.77,-35.77l0,0a0,0 0 0 1 0,0z"/>
  <path id="svg_17" fill="#f9a826" d="m200.95,295l252.25,0a0,0 0 0 1 0,0l0,0a35.77,35.77 0 0 1 -35.77,35.77l-180.71,0a35.77,35.77 0 0 1 -35.77,-35.77l0,0a0,0 0 0 1 0,0z"/>
  <circle id="svg_18" fill="#ffffa5" r="46.12" cy="219.2" cx="327.07"/>
  <rect id="svg_19" opacity="0.1" height="2.82" width="185.42" y="508.62" x="233.89"/>
  <rect id="svg_20" opacity="0.1" height="1.88" width="178.83" y="330.73" x="236.72"/>
  <path id="svg_21" fill="#e0e0e0" d="m377.899999,672.400001l-59.3,0l0,-81.42a29.65,29.65 0 0 1 29.65,-29.65l0,0a29.66,29.66 0 0 1 29.65,29.65l0,81.42z"/>
  <path id="svg_22" fill="#4d8af0" d="m883.329999,707.220001l-882.87,0s57,-131 143.4,-154.18a98.17,98.17 0 0 1 38.27,-2.71c20.84,2.65 39.69,13.58 53.08,29.77c28.32,34.24 115.05,108.85 288.58,23.59c0,0 62.12,-62.12 161.89,11.29a191.58,191.58 0 0 0 19,8.2c30.61,11.57 91.84,27.69 135.37,-6.32c60.23,-47.06 43.28,90.36 43.28,90.36z"/>
  <g id="svg_23" opacity="0.3">
   <rect id="svg_24" fill="#e0e0e0" ry="15.06" rx="15.06" height="30.12" width="154.36" y="39.78" x="557.62"/>
   <rect id="svg_25" fill="#e0e0e0" ry="15.06" rx="15.06" height="30.12" width="154.36" y="69.9" x="519.97"/>
   <rect id="svg_26" fill="#e0e0e0" ry="15.06" rx="15.06" height="30.12" width="154.36" y="100.02" x="557.62"/>
  </g>
  <g id="svg_27" opacity="0.3">
   <rect id="svg_28" fill="#e0e0e0" ry="15.06" rx="15.06" height="30.12" width="154.36" y="249.78" x="685.62"/>
   <rect id="svg_29" fill="#e0e0e0" ry="15.06" rx="15.06" height="30.12" width="154.36" y="279.9" x="647.97"/>
   <rect id="svg_30" fill="#e0e0e0" ry="15.06" rx="15.06" height="30.12" width="154.36" y="310.02" x="685.62"/>
  </g>
  <g id="svg_31" opacity="0.3">
   <path id="svg_32" fill="#030b44" d="m634.849999,259.200001l32.94,0s-12.41,21.96 -32.94,0z"/>
   <path id="svg_33" fill="#030b44" d="m636.839999,268.540001l21.6,-24.87s8.44,23.77 -21.6,24.87z"/>
  </g>
  <g id="svg_34" opacity="0.3">
   <path id="svg_35" fill="#030b44" d="m517.199999,327.910001l32.94,0s-12.41,21.96 -32.94,0z"/>
   <path id="svg_36" fill="#030b44" d="m519.189999,337.250001l21.59,-24.87s8.45,23.77 -21.59,24.87z"/>
  </g>
  <g id="svg_37" opacity="0.3">
   <path id="svg_38" fill="#030b44" d="m474.589999,70.010001l35.33,0s-13.31,23.6 -35.33,0z"/>
   <path id="svg_39" fill="#030b44" d="m476.719999,80.040001l23.17,-26.69s9.06,25.5 -23.17,26.69z"/>
  </g>
  <g id="svg_40" opacity="0.05">
   <path id="svg_41" d="m231.739999,508.480001c1,0.09 2.05,0.14 3.09,0.14l36,0l-0.76,-35.76l-37.54,0l-0.79,35.62z"/>
  </g>
  <g id="svg_42" opacity="0.05">
   <polygon id="svg_43" points="268.19 294.97 238.19 294.97 237.42 330.73 268.95 330.73 268.19 294.97"/>
  </g>
  <path id="svg_44" fill="#4d8af0" d="m935.059999,460.170001a1.5,1.5 0 0 0 0,-3a1.5,1.5 0 0 0 0,3z"/>
  <path id="svg_45" fill="#f9a826" d="m453.669999,106.210001c0,35.19 -56.89,63.71 -127.07,63.71s-127.07,-28.52 -127.07,-63.71s56.89,-106.21 127.07,-106.21s127.07,71.03 127.07,106.21z"/>
  <g id="svg_46" opacity="0.05">
   <path id="svg_47" d="m198.789999,106.210001c0,35.19 56.89,63.71 127.07,63.71l0,-169.92c-70.18,0 -127.07,71.03 -127.07,106.21z"/>
  </g>
 </g>
</svg>