<svg width="1144" height="617.32" xmlns="http://www.w3.org/2000/svg">
 <title>developer activity</title>

 <g>
  <title>background</title>
  <rect fill="none" id="canvas_background" height="402" width="582" y="-1" x="-1"/>
 </g>
 <g>
  <title>Layer 1</title>
  <path id="svg_1" opacity="0.1" fill="#f9a826" d="m1144,396.230004a181.92,181.92 0 0 1 -6.85,49.6a180.06,180.06 0 0 1 -19.27,44.28c0,50.1 -33.82,93.4 -82.91,114a167.3,167.3 0 0 1 -64.73,12.8l-753.07,0c-40.25,0 -77.55,-10.86 -108.14,-29.36a185.76,185.76 0 0 1 -24.83,-17.89c-34,-29.22 -55.08,-69.6 -55.08,-114.2a180.5,180.5 0 0 1 -29.12,-98.72c0,-73.36 43.39,-136.44 105.55,-164.29a174.52,174.52 0 0 1 25.51,-9.12q4.63,-1.26 9.36,-2.26a175.39,175.39 0 0 1 25.51,-3.5q4.65,-0.29 9.35,-0.33l1.72,0c3.46,0 6.89,0.12 10.3,0.32l1.12,-1.9q2.06,-3.44 4.22,-6.81q3.9,-6.14 8.18,-12.1q4.48,-6.29 9.35,-12.38l0.83,-1q2.76,-3.44 5.64,-6.8q9,-10.49 19,-20.35c72.11,-70.68 185.08,-116.18 312.08,-116.18c98.82,0 189.15,27.55 258.34,73.07a174.18,174.18 0 0 1 85.94,-22.59c97.74,0 177,80.37 177,179.51a184.9,184.9 0 0 1 -1,18.78a180,180 0 0 1 76,147.42z"/>
  <path id="svg_2" opacity="0.2" fill="#f9a826" d="m235.66,116.180004l0,20.35l-19,0q8.93,-10.48 19,-20.35z"/>
  <rect id="svg_3" opacity="0.2" fill="#f9a826" height="25.51" width="25.51" y="111.02" x="245.02"/>
  <rect id="svg_4" opacity="0.2" fill="#f9a826" height="25.51" width="25.51" y="111.02" x="279.88"/>
  <rect id="svg_5" opacity="0.2" fill="#f9a826" height="25.51" width="25.51" y="111.02" x="314.75"/>
  <rect id="svg_6" opacity="0.2" fill="#f9a826" height="25.51" width="25.51" y="111.02" x="349.61"/>
  <rect id="svg_7" opacity="0.2" fill="#f9a826" height="25.51" width="25.51" y="111.02" x="384.48"/>
  <rect id="svg_8" fill="#f9a826" height="25.51" width="25.51" y="111.02" x="419.35"/>
  <rect id="svg_9" opacity="0.2" fill="#f9a826" height="25.51" width="25.51" y="111.02" x="454.21"/>
  <rect id="svg_10" opacity="0.2" fill="#f9a826" height="25.51" width="25.51" y="111.02" x="489.08"/>
  <rect id="svg_11" opacity="0.2" fill="#f9a826" height="25.51" width="25.51" y="111.02" x="523.94"/>
  <rect id="svg_12" fill="#f9a826" height="25.51" width="25.51" y="111.02" x="558.81"/>
  <rect id="svg_13" opacity="0.2" fill="#f9a826" height="25.51" width="25.51" y="111.02" x="593.68"/>
  <rect id="svg_14" opacity="0.2" fill="#f9a826" height="25.51" width="25.51" y="111.02" x="628.54"/>
  <rect id="svg_15" opacity="0.2" fill="#f9a826" height="25.51" width="25.51" y="111.02" x="663.41"/>
  <rect id="svg_16" opacity="0.2" fill="#f9a826" height="25.51" width="25.51" y="111.02" x="698.28"/>
  <rect id="svg_17" opacity="0.2" fill="#f9a826" height="25.51" width="25.51" y="111.02" x="733.14"/>
  <rect id="svg_18" opacity="0.2" fill="#f9a826" height="25.51" width="25.51" y="111.02" x="768.01"/>
  <rect id="svg_19" fill="#f9a826" height="25.51" width="25.51" y="111.02" x="802.87"/>
  <rect id="svg_20" fill="#f9a826" height="25.51" width="25.51" y="111.02" x="837.74"/>
  <rect id="svg_21" opacity="0.2" fill="#f9a826" height="25.51" width="25.51" y="111.02" x="872.61"/>
  <rect id="svg_22" opacity="0.2" fill="#f9a826" height="25.51" width="25.51" y="111.02" x="907.47"/>
  <rect id="svg_23" fill="#f9a826" height="25.51" width="25.51" y="111.02" x="942.34"/>
  <rect id="svg_24" fill="#f9a826" height="25.51" width="25.51" y="111.02" x="977.2"/>
  <path id="svg_25" fill="#f9a826" d="m200.8,156.740004l0,12.1l-8.18,0q3.9,-6.18 8.18,-12.1z"/>
  <rect id="svg_26" opacity="0.2" fill="#f9a826" height="25.51" width="25.51" y="143.33" x="210.15"/>
  <rect id="svg_27" fill="#f9a826" height="25.51" width="25.51" y="143.33" x="245.02"/>
  <rect id="svg_28" opacity="0.2" fill="#f9a826" height="25.51" width="25.51" y="143.33" x="279.88"/>
  <rect id="svg_29" opacity="0.7" fill="#f9a826" height="25.51" width="25.51" y="143.33" x="314.75"/>
  <rect id="svg_30" opacity="0.2" fill="#f9a826" height="25.51" width="25.51" y="143.33" x="349.61"/>
  <rect id="svg_31" opacity="0.4" fill="#f9a826" height="25.51" width="25.51" y="143.33" x="384.48"/>
  <rect id="svg_32" fill="#f9a826" height="25.51" width="25.51" y="143.33" x="419.35"/>
  <rect id="svg_33" opacity="0.4" fill="#f9a826" height="25.51" width="25.51" y="143.33" x="454.21"/>
  <rect id="svg_34" opacity="0.2" fill="#f9a826" height="25.51" width="25.51" y="143.33" x="489.08"/>
  <rect id="svg_35" opacity="0.4" fill="#f9a826" height="25.51" width="25.51" y="143.33" x="523.94"/>
  <rect id="svg_36" fill="#f9a826" height="25.51" width="25.51" y="143.33" x="558.81"/>
  <rect id="svg_37" opacity="0.4" fill="#f9a826" height="25.51" width="25.51" y="143.33" x="593.68"/>
  <rect id="svg_38" opacity="0.4" fill="#f9a826" height="25.51" width="25.51" y="143.33" x="628.54"/>
  <rect id="svg_39" opacity="0.2" fill="#f9a826" height="25.51" width="25.51" y="143.33" x="663.41"/>
  <rect id="svg_40" opacity="0.4" fill="#f9a826" height="25.51" width="25.51" y="143.33" x="698.28"/>
  <rect id="svg_41" opacity="0.4" fill="#f9a826" height="25.51" width="25.51" y="143.33" x="733.14"/>
  <rect id="svg_42" opacity="0.2" fill="#f9a826" height="25.51" width="25.51" y="143.33" x="768.01"/>
  <rect id="svg_43" opacity="0.2" fill="#f9a826" height="25.51" width="25.51" y="143.33" x="802.87"/>
  <rect id="svg_44" opacity="0.4" fill="#f9a826" height="25.51" width="25.51" y="143.33" x="837.74"/>
  <rect id="svg_45" opacity="0.2" fill="#f9a826" height="25.51" width="25.51" y="143.33" x="872.61"/>
  <rect id="svg_46" fill="#f9a826" height="25.51" width="25.51" y="143.33" x="907.47"/>
  <rect id="svg_47" fill="#f9a826" height="25.51" width="25.51" y="143.33" x="942.34"/>
  <rect id="svg_48" fill="#f9a826" height="25.51" width="25.51" y="143.33" x="977.2"/>
  <path id="svg_49" opacity="0.2" fill="#f9a826" d="m131.06,183.330004l0,17.83l-25.51,0l0,-8.71a174.52,174.52 0 0 1 25.51,-9.12z"/>
  <polygon id="svg_50" opacity="0.2" fill="#f9a826" points="165.93 177.57 165.93 201.16 140.42 201.16 140.42 181.07 165.93 177.57"/>
  <rect id="svg_51" fill="#f9a826" height="25.51" width="25.51" y="175.65" x="175.28"/>
  <rect id="svg_52" opacity="0.7" fill="#f9a826" height="25.51" width="25.51" y="175.65" x="210.15"/>
  <rect id="svg_53" fill="#f9a826" height="25.51" width="25.51" y="175.65" x="245.02"/>
  <rect id="svg_54" opacity="0.7" fill="#f9a826" height="25.51" width="25.51" y="175.65" x="279.88"/>
  <rect id="svg_55" opacity="0.7" fill="#f9a826" height="25.51" width="25.51" y="175.65" x="314.75"/>
  <rect id="svg_56" opacity="0.2" fill="#f9a826" height="25.51" width="25.51" y="175.65" x="349.61"/>
  <rect id="svg_57" opacity="0.4" fill="#f9a826" height="25.51" width="25.51" y="175.65" x="384.48"/>
  <rect id="svg_58" opacity="0.4" fill="#f9a826" height="25.51" width="25.51" y="175.65" x="419.35"/>
  <rect id="svg_59" fill="#f9a826" height="25.51" width="25.51" y="175.65" x="454.21"/>
  <rect id="svg_60" opacity="0.2" fill="#f9a826" height="25.51" width="25.51" y="175.65" x="489.08"/>
  <rect id="svg_61" opacity="0.4" fill="#f9a826" height="25.51" width="25.51" y="175.65" x="523.94"/>
  <rect id="svg_62" fill="#f9a826" height="25.51" width="25.51" y="175.65" x="558.81"/>
  <rect id="svg_63" opacity="0.2" fill="#f9a826" height="25.51" width="25.51" y="175.65" x="593.68"/>
  <rect id="svg_64" opacity="0.4" fill="#f9a826" height="25.51" width="25.51" y="175.65" x="628.54"/>
  <rect id="svg_65" opacity="0.2" fill="#f9a826" height="25.51" width="25.51" y="175.65" x="663.41"/>
  <rect id="svg_66" fill="#f9a826" height="25.51" width="25.51" y="175.65" x="698.28"/>
  <rect id="svg_67" opacity="0.2" fill="#f9a826" height="25.51" width="25.51" y="175.65" x="733.14"/>
  <rect id="svg_68" opacity="0.7" fill="#f9a826" height="25.51" width="25.51" y="175.65" x="768.01"/>
  <rect id="svg_69" opacity="0.7" fill="#f9a826" height="25.51" width="25.51" y="175.65" x="802.87"/>
  <rect id="svg_70" opacity="0.4" fill="#f9a826" height="25.51" width="25.51" y="175.65" x="837.74"/>
  <rect id="svg_71" opacity="0.2" fill="#f9a826" height="25.51" width="25.51" y="175.65" x="872.61"/>
  <rect id="svg_72" fill="#f9a826" height="25.51" width="25.51" y="175.65" x="907.47"/>
  <rect id="svg_73" fill="#f9a826" height="25.51" width="25.51" y="175.65" x="942.34"/>
  <rect id="svg_74" fill="#f9a826" height="25.51" width="25.51" y="175.65" x="977.2"/>
  <rect id="svg_75" opacity="0.2" fill="#f9a826" height="25.51" width="25.51" y="207.96" x="105.55"/>
  <rect id="svg_76" opacity="0.2" fill="#f9a826" height="25.51" width="25.51" y="207.96" x="140.42"/>
  <rect id="svg_77" opacity="0.2" fill="#f9a826" height="25.51" width="25.51" y="207.96" x="175.28"/>
  <rect id="svg_78" opacity="0.2" fill="#f9a826" height="25.51" width="25.51" y="207.96" x="210.15"/>
  <rect id="svg_79" fill="#f9a826" height="25.51" width="25.51" y="207.96" x="245.02"/>
  <rect id="svg_80" opacity="0.7" fill="#f9a826" height="25.51" width="25.51" y="207.96" x="279.88"/>
  <rect id="svg_81" opacity="0.7" fill="#f9a826" height="25.51" width="25.51" y="207.96" x="314.75"/>
  <rect id="svg_82" opacity="0.2" fill="#f9a826" height="25.51" width="25.51" y="207.96" x="349.61"/>
  <rect id="svg_83" opacity="0.2" fill="#f9a826" height="25.51" width="25.51" y="207.96" x="384.48"/>
  <rect id="svg_84" opacity="0.4" fill="#f9a826" height="25.51" width="25.51" y="207.96" x="419.35"/>
  <rect id="svg_85" opacity="0.4" fill="#f9a826" height="25.51" width="25.51" y="207.96" x="454.21"/>
  <rect id="svg_86" fill="#f9a826" height="25.51" width="25.51" y="207.96" x="489.08"/>
  <rect id="svg_87" opacity="0.2" fill="#f9a826" height="25.51" width="25.51" y="207.96" x="523.94"/>
  <rect id="svg_88" opacity="0.4" fill="#f9a826" height="25.51" width="25.51" y="207.96" x="558.81"/>
  <rect id="svg_89" opacity="0.4" fill="#f9a826" height="25.51" width="25.51" y="207.96" x="593.68"/>
  <rect id="svg_90" opacity="0.4" fill="#f9a826" height="25.51" width="25.51" y="207.96" x="628.54"/>
  <rect id="svg_91" opacity="0.4" fill="#f9a826" height="25.51" width="25.51" y="207.96" x="663.41"/>
  <rect id="svg_92" opacity="0.2" fill="#f9a826" height="25.51" width="25.51" y="207.96" x="698.28"/>
  <rect id="svg_93" opacity="0.2" fill="#f9a826" height="25.51" width="25.51" y="207.96" x="733.14"/>
  <rect id="svg_94" opacity="0.2" fill="#f9a826" height="25.51" width="25.51" y="207.96" x="768.01"/>
  <rect id="svg_95" opacity="0.2" fill="#f9a826" height="25.51" width="25.51" y="207.96" x="802.87"/>
  <rect id="svg_96" opacity="0.7" fill="#f9a826" height="25.51" width="25.51" y="207.96" x="837.74"/>
  <rect id="svg_97" opacity="0.7" fill="#f9a826" height="25.51" width="25.51" y="207.96" x="872.61"/>
  <rect id="svg_98" opacity="0.4" fill="#f9a826" height="25.51" width="25.51" y="207.96" x="907.47"/>
  <rect id="svg_99" opacity="0.2" fill="#f9a826" height="25.51" width="25.51" y="207.96" x="942.34"/>
  <rect id="svg_100" fill="#f9a826" height="25.51" width="25.51" y="207.96" x="977.2"/>
  <rect id="svg_101" opacity="0.2" fill="#f9a826" height="25.51" width="25.51" y="240.28" x="105.55"/>
  <rect id="svg_102" opacity="0.2" fill="#f9a826" height="25.51" width="25.51" y="240.28" x="140.42"/>
  <rect id="svg_103" opacity="0.4" fill="#f9a826" height="25.51" width="25.51" y="240.28" x="175.28"/>
  <rect id="svg_104" opacity="0.2" fill="#f9a826" height="25.51" width="25.51" y="240.28" x="210.15"/>
  <rect id="svg_105" opacity="0.2" fill="#f9a826" height="25.51" width="25.51" y="240.28" x="245.02"/>
  <rect id="svg_106" opacity="0.7" fill="#f9a826" height="25.51" width="25.51" y="240.28" x="279.88"/>
  <rect id="svg_107" opacity="0.7" fill="#f9a826" height="25.51" width="25.51" y="240.28" x="314.75"/>
  <rect id="svg_108" opacity="0.2" fill="#f9a826" height="25.51" width="25.51" y="240.28" x="349.61"/>
  <rect id="svg_109" opacity="0.2" fill="#f9a826" height="25.51" width="25.51" y="240.28" x="384.48"/>
  <rect id="svg_110" opacity="0.4" fill="#f9a826" height="25.51" width="25.51" y="240.28" x="419.35"/>
  <rect id="svg_111" fill="#f9a826" height="25.51" width="25.51" y="240.28" x="454.21"/>
  <rect id="svg_112" opacity="0.2" fill="#f9a826" height="25.51" width="25.51" y="240.28" x="489.08"/>
  <rect id="svg_113" fill="#f9a826" height="25.51" width="25.51" y="240.28" x="523.94"/>
  <rect id="svg_114" fill="#f9a826" height="25.51" width="25.51" y="240.28" x="558.81"/>
  <rect id="svg_115" fill="#f9a826" height="25.51" width="25.51" y="240.28" x="593.68"/>
  <rect id="svg_116" opacity="0.2" fill="#f9a826" height="25.51" width="25.51" y="240.28" x="628.54"/>
  <rect id="svg_117" fill="#f9a826" height="25.51" width="25.51" y="240.28" x="663.41"/>
  <rect id="svg_118" opacity="0.2" fill="#f9a826" height="25.51" width="25.51" y="240.28" x="698.28"/>
  <rect id="svg_119" opacity="0.2" fill="#f9a826" height="25.51" width="25.51" y="240.28" x="733.14"/>
  <rect id="svg_120" opacity="0.2" fill="#f9a826" height="25.51" width="25.51" y="240.28" x="768.01"/>
  <rect id="svg_121" opacity="0.2" fill="#f9a826" height="25.51" width="25.51" y="240.28" x="802.87"/>
  <rect id="svg_122" opacity="0.2" fill="#f9a826" height="25.51" width="25.51" y="240.28" x="837.74"/>
  <rect id="svg_123" opacity="0.7" fill="#f9a826" height="25.51" width="25.51" y="240.28" x="872.61"/>
  <rect id="svg_124" opacity="0.2" fill="#f9a826" height="25.51" width="25.51" y="240.28" x="907.47"/>
  <rect id="svg_125" opacity="0.2" fill="#f9a826" height="25.51" width="25.51" y="240.28" x="942.34"/>
  <rect id="svg_126" fill="#f9a826" height="25.51" width="25.51" y="240.28" x="977.2"/>
  <rect id="svg_127" opacity="0.2" fill="#f9a826" height="25.51" width="25.51" y="272.59" x="105.55"/>
  <rect id="svg_128" opacity="0.2" fill="#f9a826" height="25.51" width="25.51" y="272.59" x="140.42"/>
  <rect id="svg_129" opacity="0.2" fill="#f9a826" height="25.51" width="25.51" y="272.59" x="175.28"/>
  <rect id="svg_130" opacity="0.4" fill="#f9a826" height="25.51" width="25.51" y="272.59" x="210.15"/>
  <rect id="svg_131" opacity="0.2" fill="#f9a826" height="25.51" width="25.51" y="272.59" x="245.02"/>
  <rect id="svg_132" opacity="0.2" fill="#f9a826" height="25.51" width="25.51" y="272.59" x="279.88"/>
  <rect id="svg_133" opacity="0.7" fill="#f9a826" height="25.51" width="25.51" y="272.59" x="314.75"/>
  <rect id="svg_134" opacity="0.2" fill="#f9a826" height="25.51" width="25.51" y="272.59" x="349.61"/>
  <rect id="svg_135" opacity="0.2" fill="#f9a826" height="25.51" width="25.51" y="272.59" x="384.48"/>
  <rect id="svg_136" opacity="0.2" fill="#f9a826" height="25.51" width="25.51" y="272.59" x="419.35"/>
  <rect id="svg_137" fill="#f9a826" height="25.51" width="25.51" y="272.59" x="454.21"/>
  <rect id="svg_138" opacity="0.2" fill="#f9a826" height="25.51" width="25.51" y="272.59" x="489.08"/>
  <rect id="svg_139" fill="#f9a826" height="25.51" width="25.51" y="272.59" x="523.94"/>
  <rect id="svg_140" fill="#f9a826" height="25.51" width="25.51" y="272.59" x="558.81"/>
  <rect id="svg_141" opacity="0.2" fill="#f9a826" height="25.51" width="25.51" y="272.59" x="593.68"/>
  <rect id="svg_142" opacity="0.2" fill="#f9a826" height="25.51" width="25.51" y="272.59" x="628.54"/>
  <rect id="svg_143" opacity="0.2" fill="#f9a826" height="25.51" width="25.51" y="272.59" x="663.41"/>
  <rect id="svg_144" opacity="0.2" fill="#f9a826" height="25.51" width="25.51" y="272.59" x="698.28"/>
  <rect id="svg_145" opacity="0.2" fill="#f9a826" height="25.51" width="25.51" y="272.59" x="733.14"/>
  <rect id="svg_146" opacity="0.2" fill="#f9a826" height="25.51" width="25.51" y="272.59" x="768.01"/>
  <rect id="svg_147" opacity="0.2" fill="#f9a826" height="25.51" width="25.51" y="272.59" x="802.87"/>
  <rect id="svg_148" opacity="0.2" fill="#f9a826" height="25.51" width="25.51" y="272.59" x="837.74"/>
  <rect id="svg_149" opacity="0.2" fill="#f9a826" height="25.51" width="25.51" y="272.59" x="872.61"/>
  <rect id="svg_150" opacity="0.2" fill="#f9a826" height="25.51" width="25.51" y="272.59" x="907.47"/>
  <rect id="svg_151" opacity="0.4" fill="#f9a826" height="25.51" width="25.51" y="272.59" x="942.34"/>
  <rect id="svg_152" fill="#f9a826" height="25.51" width="25.51" y="272.59" x="977.2"/>
  <rect id="svg_153" opacity="0.7" fill="#f9a826" height="25.51" width="25.51" y="304.91" x="105.55"/>
  <rect id="svg_154" opacity="0.7" fill="#f9a826" height="25.51" width="25.51" y="304.91" x="140.42"/>
  <rect id="svg_155" opacity="0.7" fill="#f9a826" height="25.51" width="25.51" y="304.91" x="175.28"/>
  <rect id="svg_156" opacity="0.7" fill="#f9a826" height="25.51" width="25.51" y="304.91" x="210.15"/>
  <rect id="svg_157" opacity="0.7" fill="#f9a826" height="25.51" width="25.51" y="304.91" x="245.02"/>
  <rect id="svg_158" opacity="0.2" fill="#f9a826" height="25.51" width="25.51" y="304.91" x="279.88"/>
  <rect id="svg_159" opacity="0.2" fill="#f9a826" height="25.51" width="25.51" y="304.91" x="314.75"/>
  <rect id="svg_160" opacity="0.2" fill="#f9a826" height="25.51" width="25.51" y="304.91" x="349.61"/>
  <rect id="svg_161" opacity="0.2" fill="#f9a826" height="25.51" width="25.51" y="304.91" x="384.48"/>
  <rect id="svg_162" opacity="0.2" fill="#f9a826" height="25.51" width="25.51" y="304.91" x="419.35"/>
  <rect id="svg_163" opacity="0.2" fill="#f9a826" height="25.51" width="25.51" y="304.91" x="454.21"/>
  <rect id="svg_164" fill="#f9a826" height="25.51" width="25.51" y="304.91" x="489.08"/>
  <rect id="svg_165" opacity="0.2" fill="#f9a826" height="25.51" width="25.51" y="304.91" x="523.94"/>
  <rect id="svg_166" opacity="0.2" fill="#f9a826" height="25.51" width="25.51" y="304.91" x="558.81"/>
  <rect id="svg_167" opacity="0.2" fill="#f9a826" height="25.51" width="25.51" y="304.91" x="593.68"/>
  <rect id="svg_168" fill="#f9a826" height="25.51" width="25.51" y="304.91" x="628.54"/>
  <rect id="svg_169" opacity="0.2" fill="#f9a826" height="25.51" width="25.51" y="304.91" x="663.41"/>
  <rect id="svg_170" opacity="0.2" fill="#f9a826" height="25.51" width="25.51" y="304.91" x="698.28"/>
  <rect id="svg_171" opacity="0.2" fill="#f9a826" height="25.51" width="25.51" y="304.91" x="733.14"/>
  <rect id="svg_172" opacity="0.2" fill="#f9a826" height="25.51" width="25.51" y="304.91" x="768.01"/>
  <rect id="svg_173" opacity="0.2" fill="#f9a826" height="25.51" width="25.51" y="304.91" x="802.87"/>
  <rect id="svg_174" opacity="0.2" fill="#f9a826" height="25.51" width="25.51" y="304.91" x="837.74"/>
  <rect id="svg_175" opacity="0.2" fill="#f9a826" height="25.51" width="25.51" y="304.91" x="872.61"/>
  <rect id="svg_176" opacity="0.2" fill="#f9a826" height="25.51" width="25.51" y="304.91" x="907.47"/>
  <rect id="svg_177" opacity="0.2" fill="#f9a826" height="25.51" width="25.51" y="304.91" x="942.34"/>
  <rect id="svg_178" fill="#f9a826" height="25.51" width="25.51" y="304.91" x="977.2"/>
  <circle id="svg_179" fill="#767d9f" r="34.87" cy="363.89" cx="734.52"/>
  <path id="svg_180" fill="#ae6e79" d="m732.71,319.530004q5.22,22.78 8.86,45.9c0.73,4.58 1.38,9.41 -0.28,13.74c-1.39,3.61 -4.22,6.43 -6.44,9.59s-3.9,7.21 -2.55,10.83s5.29,5.6 9.05,6.62c10.76,2.9 22.23,0.79 32.94,-2.35a53.29,53.29 0 0 0 13.81,-5.72c4.54,-2.88 8.26,-6.88 11.68,-11c15.61,-18.93 25.83,-41.65 35.45,-64.23a39.12,39.12 0 0 1 -33.11,-13.34c-3.94,-4.63 -6.83,-11.08 -4.61,-16.74c-6.51,3.57 -14.24,3.81 -21.25,6.25a75.49,75.49 0 0 0 -12.5,6.15q-7.18,4.15 -14.28,8.46c-5.41,3.26 -10.48,6.16 -16.77,5.84z"/>
  <path id="svg_181" fill="#767d9f" d="m805.64,345.710004c-6.11,11.89 -14.06,23.32 -25.41,30.4s-26.63,9 -38,2c-5.6,-3.42 -9.84,-8.62 -14.73,-13s-11,-8.13 -17.57,-7.56c-7.24,0.63 -12.91,6.28 -17.76,11.69c-7.36,8.22 -14.47,16.79 -19.68,26.52c-10,18.7 -12.37,40.56 -11.93,61.76s3.51,42.29 3.58,63.49c0.1,26.08 -4.32,51.95 -8.79,77.64c41.1,-5.06 82.25,6 123.44,10.19c26.36,2.71 52.92,2.65 79.42,2.58c4.66,0 9.62,-0.12 13.5,-2.7a18.2,18.2 0 0 0 5.59,-6.64c3.66,-6.75 5.13,-14.45 6.15,-22.06c2.59,-19.22 2.67,-38.68 2.74,-58.08c0.18,-47 0.35,-94.17 -5.62,-140.8c-1.47,-11.47 -3.35,-23 -7.75,-33.73s-11.58,-20.6 -21.62,-26.35c-6.45,-3.7 -21.4,-10.14 -29,-6.41c-8.53,4.16 -12.47,23.1 -16.56,31.06z"/>
  <path id="svg_182" fill="#4c4981" d="m808.68,478.430004c-1.55,-29 -7.86,-59.95 5.57,-85.69c3.3,-6.32 -8.54,-14.21 -4.88,-20.33a92.08,92.08 0 0 0 10.06,-23.93c0.76,-2.89 1.37,-5.95 0.65,-8.85c-1.33,-5.29 -6.56,-8.44 -11,-11.66c-4.9,-3.56 -7.42,-14.41 -9,-20.28s12.57,1.2 18.26,-0.89c7.9,-2.89 17.94,-1.07 25.82,1.86c4.4,1.62 9.18,1.76 13.87,1.88c9.11,0.24 18.25,0.47 27.29,-0.65c4.06,-0.51 8.13,-1.28 12.21,-1.05c10.41,0.59 19.46,7.71 25.62,16.13s10.08,18.23 15.13,27.35c4.21,7.6 9.23,14.78 12.82,22.69c3.18,7 5.19,14.52 7.18,22l5.13,19.19a25.58,25.58 0 0 1 1.26,8.51c-0.26,3.07 -1.62,5.93 -3,8.66a164.12,164.12 0 0 1 -18.67,28.49c-10.79,13.23 -23.89,25.16 -30.3,41c-2.5,6.17 -3.89,12.73 -5.16,19.27a707.94,707.94 0 0 0 -10.9,79.15a174.2,174.2 0 0 0 -36.52,-12.21a177.61,177.61 0 0 0 -19,-3c-5.59,-0.58 -12.8,0.52 -18.12,-1c-8.9,-2.53 -9.88,-17.58 -11.23,-25.46c-2.16,-12.55 -2.59,-25.32 -2.67,-38c-0.1,-14.42 0.35,-28.81 -0.42,-43.18z"/>
  <path id="svg_183" fill="#4c4981" d="m613.23,424.200004c4.21,24 8.85,48.07 18,70.62c-0.23,0.22 -0.46,0.42 -0.69,0.62c-0.81,0.69 -1.65,1.34 -2.53,2c-2.05,1.44 -4.3,2.66 -6,4.54a8,8 0 0 0 -1.5,2.45a5.48,5.48 0 0 0 0,4.47c-4.77,2.11 -10.31,1.46 -15.66,1.26c-4.61,-0.17 -9.08,0 -12.78,2.53c-5.14,3.54 -6.69,10.34 -7.52,16.52q-0.46,3.38 -0.79,6.77q-0.32,3.15 -0.52,6.32a188.61,188.61 0 0 0 -0.19,21q0.08,1.92 0.21,3.84c-16.34,-0.39 -31.23,-8.91 -45.32,-17.19c-3.22,-1.89 -6.54,-3.88 -8.63,-7a15.8,15.8 0 0 1 -2.31,-10.29c0,-0.51 0.09,-1 0.16,-1.52a41.58,41.58 0 0 1 2.29,-8.68a107.2,107.2 0 0 1 19.19,-32.65c3.58,-4.18 7.61,-8.27 9.28,-13.52c0.73,-2.29 1,-4.72 1.74,-7c3.32,-9.88 15.3,-14.55 19.4,-24.14c1,-2.29 1.46,-4.8 2.7,-7a17.63,17.63 0 0 1 4.25,-4.75c0.73,-0.61 1.49,-1.2 2.24,-1.79q10.54,-8.26 20.31,-17.45q1.82,-1.71 3.6,-3.46a59.48,59.48 0 0 0 1.07,13.5z"/>
  <path id="svg_184" fill="#4c4981" d="m714,353.220004c-1.44,1.52 -3,2.95 -4.53,4.37l-0.41,0.37l-1.62,1.5a39,39 0 0 0 -7.55,8.79l-0.17,0.28c-5.1,9.13 -3.21,20.37 -1.79,30.74a261.55,261.55 0 0 1 2.37,39c-0.26,18 -2.38,35.88 -2.42,53.86c0,4.08 0.09,8.15 0.27,12.23c0.29,6.63 0.79,13.25 1.39,19.87c0.65,7.26 1.43,14.51 2.16,21.76c0.58,5.61 1.13,11.21 1.59,16.81c0.23,2.9 0.45,5.79 0.63,8.69c0.21,3.4 0.38,6.81 0.48,10.21l0,0c0.07,2.16 0.11,4.31 0.11,6.47c0,1.23 0,2.45 0,3.67q0,3.51 -0.19,7q-0.2,4.49 -0.61,9c-0.31,3.27 -0.86,6.84 -3.16,9.14c-0.14,0.14 -0.29,0.27 -0.44,0.4l-3.24,-0.4a332.72,332.72 0 0 0 -67.3,-1.2c0.49,-3.38 0.94,-6.75 1.38,-10.14c0.2,-1.6 0.4,-3.21 0.59,-4.82q0.33,-2.76 0.63,-5.52c0.23,-2 0.44,-4 0.64,-6q0.78,-7.73 1.37,-15.47q0.87,-11.29 1.32,-22.62q0.22,-5.41 0.34,-10.83q0.17,-6.72 0.16,-13.45q0,-6.54 -0.11,-13.1c0,-1.44 -0.06,-2.88 -0.18,-4.31a27.35,27.35 0 0 0 -0.53,-3.83a49.87,49.87 0 0 0 -3,-8.48c-0.22,-0.52 -0.43,-1 -0.64,-1.55c-0.12,-0.27 -0.23,-0.55 -0.34,-0.82c5.76,-5.13 9.86,-12 13.8,-18.76c6.39,-10.89 12.93,-22.26 14,-34.84s-5.18,-26.71 -17.2,-30.55c-3.27,-1 -6.73,-1.28 -10.1,-1.87c-3.18,-0.56 -9.81,-1.83 -13.49,-4.11q-3,3.08 -6,6.05a22.15,22.15 0 0 1 2.17,-8.71l1.42,0.07a2.71,2.71 0 0 1 -0.16,-1c0,-1.07 0.74,-2.28 2.32,-3.62c4.71,-4 12.12,-4.89 15.09,-10.3c1.24,-2.25 1.45,-4.93 2.45,-7.29c2.87,-6.73 11.11,-9.21 16.07,-14.59s6.2,-13 10.21,-19a28.62,28.62 0 0 1 12,-10c0.4,-0.19 0.81,-0.38 1.22,-0.55c8.3,-3.55 18.16,-4.36 26.76,-4.34c3.34,0 12,0.1 16.24,1.79a5.32,5.32 0 0 1 1.85,1.13c4.52,4.92 -2.51,15.31 -5.85,18.87z"/>
  <path id="svg_185" fill="#4c4981" d="m614.72,401.350004a60.88,60.88 0 0 1 46.74,4.87c7.2,4 13.66,9.58 17.62,16.78c5.95,10.8 5.69,23.82 5.27,36.15c-0.21,6.17 -0.48,12.56 -3.2,18.1c-3.15,6.41 -9.09,10.81 -15.15,14.41a42.24,42.24 0 0 1 -12.32,5.33c-6.72,1.46 -13.7,0.22 -20.47,-1c-7.36,-1.36 -15.26,-3 -20.37,-8.48c-3,-3.18 -4.64,-7.31 -6.26,-11.35q-3.49,-8.75 -7,-17.48c-4.05,-10.11 -5.42,-18.52 -0.07,-28.37c2.43,-4.49 5.4,-8.69 7.8,-13.21c1.2,-2.3 5.5,-15.16 7.41,-15.75z"/>
  <path id="svg_186" fill="#504f60" d="m1035,574.220004l0,29.9a167.3,167.3 0 0 1 -64.73,12.8l-269.69,0c-0.14,0.14 -0.29,0.27 -0.44,0.4l-3.24,-0.4l-479.73,0c-40.25,0 -77.55,-10.86 -108.14,-29.36l0,-45.65l230.72,-26.63l0.18,0l134.36,11.38l34.77,3l18.06,1.53l37.38,3.17l19.23,1.63l28,2.38l3.94,0.33l20.18,1.71l27.38,2.25l38.5,3.26l64.18,5.45l45.15,3.83l74.14,6.29l14.1,1.19l1.52,0.13l1.32,0.11l18.62,1.58l20.44,1.74l2.37,0.2l91.43,7.78z"/>
  <polygon id="svg_187" fill="#9c9ca1" points="764 573.12 474.86 523.77 463.65 580.46 596.19 596.33 637 601.44 749.26 579.33 764 573.12"/>
  <path id="svg_188" fill="#9c9ca1" d="m614.33,598.600004l144.86,-27.23a5,5 0 0 1 5.94,4.93l0,0a5,5 0 0 1 -4.09,4.93l-141.47,26.49l-5.24,-9.12z"/>
  <path id="svg_189" fill="#ae6e79" d="m677.17,512.970004c4.51,-0.42 9.08,-1.13 13.14,-3.13c5,-2.49 8.89,-6.78 13.52,-9.94c10.18,-7 23.8,-7.94 35.47,-3.92s21.41,12.63 28.23,22.91c4.53,6.85 7.93,15.59 4.73,23.15a30.51,30.51 0 0 1 -4.12,6.44l-8.34,10.9a29,29 0 0 1 -5.66,6.09c-3.12,2.27 -7,3.2 -10.82,3.76c-10.15,1.48 -20.48,0.64 -30.71,1.32c-17.57,1.17 -34.73,6.83 -52.34,6.64c-10.12,-0.11 -20.11,-2.15 -30,-4.19l-43.77,-9c-7.62,-1.56 -16.23,-3.84 -19.82,-10.75c-1.61,-3.11 -1.91,-6.71 -2.1,-10.21c-0.52,-9.64 0,-20.36 6.68,-27.31c6.28,-6.52 16.21,-8.58 23.71,-13.4c9.18,-5.91 12.21,-4 21.89,0.44a120,120 0 0 0 60.31,10.2z"/>
  <path id="svg_190" opacity="0.05" d="m677.17,512.970004c4.51,-0.42 9.08,-1.13 13.14,-3.13c5,-2.49 8.89,-6.78 13.52,-9.94c10.18,-7 23.8,-7.94 35.47,-3.92s21.41,12.63 28.23,22.91c4.53,6.85 7.93,15.59 4.73,23.15a30.51,30.51 0 0 1 -4.12,6.44l-8.34,10.9a29,29 0 0 1 -5.66,6.09c-3.12,2.27 -7,3.2 -10.82,3.76c-10.15,1.48 -20.48,0.64 -30.71,1.32c-17.57,1.17 -34.73,6.83 -52.34,6.64c-10.12,-0.11 -20.11,-2.15 -30,-4.19l-43.77,-9c-7.62,-1.56 -16.23,-3.84 -19.82,-10.75c-1.61,-3.11 -1.91,-6.71 -2.1,-10.21c-0.52,-9.64 0,-20.36 6.68,-27.31c6.28,-6.52 16.21,-8.58 23.71,-13.4c9.18,-5.91 12.21,-4 21.89,0.44a120,120 0 0 0 60.31,10.2z"/>
  <path id="svg_191" fill="#ae6e79" d="m852.94,499.260004c-12.28,4.75 -24.63,9.52 -37.49,12.35c-21.56,4.75 -44.12,4 -65.51,9.43c-11.3,2.88 -22.53,7.52 -34.14,6.58c-5.19,-0.42 -10.2,-2 -15.25,-3.2c-28.37,-7 -60.62,-4.73 -83.66,13.27c-7.88,6.15 -14.33,13.82 -20.18,22a14.7,14.7 0 0 0 5.91,21.88a86.62,86.62 0 0 0 28.38,7.57c13.13,1.16 26.32,-0.7 39.38,-2.56c19.38,-2.75 38.77,-5.51 58.1,-8.6c6.94,-1.11 13.88,-2.26 20.86,-3.14c50.23,-6.35 101.37,1.37 151.73,-3.93c5.09,-0.54 10.27,-1.24 14.9,-3.41c11.72,-5.5 17.52,-20 15.1,-32.74s-11.76,-23.33 -23,-29.83c-9.42,-5.47 -19.58,-7.68 -30.07,-10c-9.74,-2.27 -15.68,0.73 -25.06,4.33z"/>
  <path id="svg_192" opacity="0.1" d="m960.67,423.100004c5.54,7.26 6.72,17 6.12,26.09s-2.76,18.08 -3.08,27.21c-0.44,12.52 2.58,25 2.07,37.48c-0.36,8.73 -2.43,17.29 -4.88,25.67c-2.89,9.89 -7.07,20.52 -16.2,25.27c-12.12,6.31 -37.54,2.76 -50.29,7.7c1.16,-7.23 12.28,-17.7 13.44,-24.93c0.8,-5 1.61,-10.14 0.75,-15.15c-1.1,-6.39 -4.85,-12.06 -9.3,-16.78c-7.08,-7.51 -16.32,-13.16 -26.47,-15s-35,-0.33 -43.12,6.08c-1,-6.62 17.6,-13 24.14,-14.43c3.26,-0.73 7,-0.32 9.61,-2.39c5,-3.92 1.37,-11.73 1.61,-18c0.19,-5 3.11,-9.58 3.7,-14.58c1,-8 -4.22,-16.15 -2.17,-24c0.76,-2.9 2.45,-5.45 3.62,-8.21c3.56,-8.45 2,-18.09 0.1,-27.07c-1.18,-5.64 -2.33,-12 0.81,-16.81c2.91,-4.49 11.17,11.5 16.46,10.76c17.47,-2.45 33.28,-15.4 47.39,-4.8c7.19,5.4 8.13,11 11,18.71c2.79,7.34 10.02,11.1 14.69,17.18z"/>
  <path id="svg_193" fill="#4c4981" d="m963.67,423.100004c5.54,7.26 6.72,17 6.12,26.09s-2.76,18.08 -3.08,27.21c-0.44,12.52 2.58,25 2.07,37.48c-0.36,8.73 -2.43,17.29 -4.88,25.67c-2.89,9.89 -7.07,20.52 -16.2,25.27c-12.12,6.31 -37.54,2.76 -50.29,7.7c1.16,-7.23 12.28,-17.7 13.44,-24.93c0.8,-5 1.61,-10.14 0.75,-15.15c-1.1,-6.39 -4.85,-12.06 -9.3,-16.78c-7.08,-7.51 -16.32,-13.16 -26.47,-15s-35,-0.33 -43.12,6.08c-1,-6.62 17.6,-13 24.14,-14.43c3.26,-0.73 7,-0.32 9.61,-2.39c5,-3.92 1.37,-11.73 1.61,-18c0.19,-5 3.11,-9.58 3.7,-14.58c1,-8 -4.22,-16.15 -2.17,-24c0.76,-2.9 2.45,-5.45 3.62,-8.21c3.56,-8.45 2,-18.09 0.1,-27.07c-1.18,-5.64 -2.33,-12 0.81,-16.81c2.91,-4.49 8.6,-6.19 13.89,-6.94a68.42,68.42 0 0 1 50,12.9c7.19,5.4 8.13,11 11,18.71c2.75,7.34 9.98,11.1 14.65,17.18z"/>
  <path id="svg_194" fill="#9c9ca1" d="m302,375.720004l54.37,200.94a12.55,12.55 0 0 0 10.91,9.21l244.72,23.51a12.54,12.54 0 0 0 13.38,-15.48l-59.54,-242.38a12.54,12.54 0 0 0 -13.12,-9.51l-239.59,17.92a12.54,12.54 0 0 0 -11.13,15.79z"/>
  <ellipse id="svg_195" fill="#fff" ry="27.25" rx="26.9" cy="387.68" cx="787.11"/>
  <path id="svg_196" fill="#fff" d="m809.2,337.970004s5.67,16.86 -11.06,23.95l-2.14,3.74l10.48,10.34s12.92,-23.57 11.52,-31.94c0,0 -2,-8.5 -8.8,-6.09z"/>
  <circle id="svg_197" fill="#f9a826" r="25.94" cy="388.99" cx="790.2"/>
  <path id="svg_198" fill="#f9a826" d="m818.13,347.890004l-4.12,-6.8l-6,-0.85c1.28,-22.39 -4.53,-29.06 -4.53,-29.06l-1.35,-0.13l-5.88,-0.57l-11.06,-11.48l0,-3.26c15.54,1.85 24.13,9.23 28.77,17.88c8.2,15.18 4.17,34.27 4.17,34.27z"/>
  <path id="svg_199" opacity="0.1" stroke-miterlimit="10" stroke="#4c4981" d="m802.18,306.930004l0,4.12l-5.88,-0.57l-11.06,-11.48s17.11,3.83 16.94,7.93z"/>
  <path id="svg_200" opacity="0.1" stroke-miterlimit="10" stroke="#4c4981" d="m818.13,347.890004l-4.12,-6.8l0,-27.43c8.15,15.14 4.12,34.23 4.12,34.23z"/>
  <ellipse id="svg_201" fill="#fff" transform="rotate(-30 -185.66999816894545,306.64001464843744) " ry="26.32" rx="14.43" cy="824.840015" cx="571.440002"/>
  <path id="svg_202" fill="#f9a826" d="m733,374.660004c7.27,12.59 16.19,21 9.29,25s-27,2 -34.27,-10.6s-0.67,-30 6.23,-34s11.47,6.98 18.75,19.6z"/>
  <path id="svg_203" opacity="0.1" d="m797.73,283.960004c0,40.23 -27.53,79 -67.76,79a72.85,72.85 0 0 1 0,-145.7c40.23,0.04 67.76,26.46 67.76,66.7z"/>
  <circle id="svg_204" fill="#ae6e79" r="72.85" cy="288.15" cx="729.97"/>
  <path id="svg_205" fill="#444053" d="m723.57,255.870004c8.67,3.19 13.8,12.15 21.58,17.14c11,7 25.32,5.19 37.88,1.73c7,-1.91 14.32,-4.24 21.21,-2.12a6,6 0 0 0 3.23,0.46c1.5,-0.43 2.24,-2.09 2.73,-3.57c8.52,-25.4 4.69,-54.17 -8.17,-77.67c-3.32,-6.06 -7.3,-11.92 -12.78,-16.13c-4.32,-3.31 -9.4,-5.48 -14.52,-7.33a145,145 0 0 0 -28.88,-7.13a17.94,17.94 0 0 0 -5.27,-0.17c-2.41,0.39 -4.57,1.69 -6.72,2.85a68.78,68.78 0 0 1 -29.86,8.11c-14,0.53 -30,-2.77 -40.79,6.21c-13,10.77 -9.76,31.78 -18.19,46.4c-5.58,9.67 -16.34,16.69 -18.11,27.7a25.57,25.57 0 0 0 0.63,10.07c4.12,16.94 20.52,30.06 38,30.37a14.42,14.42 0 0 0 7.76,-1.59a17.55,17.55 0 0 0 4.09,-3.89c11.45,-13.56 24.55,-39.4 46.18,-31.44z"/>
  <path id="svg_206" opacity="0.1" d="m810.2,262.140004c-0.49,1.48 -1.23,3.14 -2.73,3.57a6,6 0 0 1 -3.23,-0.46c-6.89,-2.12 -14.25,0.21 -21.2,2.12c-12.57,3.46 -26.92,5.31 -37.88,-1.73c-7.79,-5 -12.91,-14 -21.59,-17.14c-21.63,-8 -34.73,17.88 -46.21,31.44a17.55,17.55 0 0 1 -4.09,3.89a14.42,14.42 0 0 1 -7.76,1.59c-17.42,-0.31 -33.83,-13.43 -38,-30.37c-0.23,-1 -0.43,-2 -0.58,-3c0,0.09 0,0.17 -0.05,0.26a25.57,25.57 0 0 0 0.63,10.07c4.12,16.94 20.53,30.06 38,30.37a14.42,14.42 0 0 0 7.76,-1.59a17.55,17.55 0 0 0 4.09,-3.89c11.48,-13.56 24.58,-39.4 46.21,-31.44c8.68,3.19 13.8,12.15 21.59,17.14c11,7 25.31,5.19 37.88,1.73c7,-1.91 14.31,-4.24 21.2,-2.12a6,6 0 0 0 3.23,0.46c1.5,-0.43 2.24,-2.09 2.73,-3.57a90.29,90.29 0 0 0 4.48,-32.26a88.8,88.8 0 0 1 -4.48,24.93z"/>
 </g>
</svg>